<svg xmlns="http://www.w3.org/2000/svg" xmlns:xlink="http://www.w3.org/1999/xlink" width="277.341" height="230.004" viewBox="0 0 277.341 230.004"><defs><linearGradient id="a" x1="0.5" y1="1" x2="0.5" gradientUnits="objectBoundingBox"><stop offset="0" stop-color="gray" stop-opacity="0.251"/><stop offset="0.54" stop-color="gray" stop-opacity="0.122"/><stop offset="1" stop-color="gray" stop-opacity="0.102"/></linearGradient><linearGradient id="b" x1="6.341" y1="1" x2="6.341" y2="0" xlink:href="#a"/></defs><g transform="translate(0.003 -0.005)"><path d="M376.2,176.68c-10.652,17.232-8.656,40.708-3.978,59.218,1.565,6.2,3.369,12.74,2.031,19.676-1.637,8.481-7.605,15.141-13.645,18.955-11.011,6.936-23.585,6.743-32.741-.508-7.907-6.264-13.114-17.189-21.187-23.117-13.5-9.923-32.034-3.909-48.129,5.365-11.382,6.545-23.909,14.874-34.43,10.158-7.4-3.311-12.017-12.654-14.171-22.821-1.04-4.908-1.669-10.27-4.052-14.01a15.723,15.723,0,0,0-5.391-4.931c-18.453-11.126-43.419-1.824-61.214-14.423-12.019-8.507-18.852-26.078-21.1-44.867s-.4-38.893,1.913-58.687c1.646-14.073,3.871-29.128,11.258-40.573C139.18,54.011,151.5,48.6,162.2,49.746s20,7.932,28.017,16.224c10.015,10.362,19.047,23.6,32.009,26.939,8.829,2.277,18.47-.359,27.859-1.85,15.675-2.493,31.133-1.778,46.481-.841,14.693.9,29.475,2.01,43.166,7.18,9.687,3.662,17.123,11.284,26.164,16.241,5.893,3.231,12.542,3.642,18.033,7.95a27.116,27.116,0,0,1,9.908,27.488C391.259,160.858,381.851,167.536,376.2,176.68Z" transform="translate(-117.18 -49.59)" fill="#00abbd" opacity="0.1"/><path d="M781.67,209.106s29.007-24.306,35.458-36.561a175.059,175.059,0,0,1,14.662-22.815" transform="translate(-590.83 -120.966)" fill="none" stroke="#535461" stroke-miterlimit="10" stroke-width="2"/><path d="M911.758,238.1,899.21,235.27S902.171,248.5,911.758,238.1Z" transform="translate(-674.613 -181.939)" fill="#00abbd"/><path d="M871.43,198.08l7.22,10.813S864.535,209.913,871.43,198.08Z" transform="translate(-653.459 -155.43)" fill="#00abbd"/><path d="M931.628,204.74l-11.468-2.01S927.363,213.687,931.628,204.74Z" transform="translate(-689.546 -158.744)" fill="#00abbd"/><path d="M898.278,176.08l5.649,7.4S893.927,184.426,898.278,176.08Z" transform="translate(-673.167 -139.748)" fill="#00abbd"/><path d="M940.81,170.95s9.765.465,10.914,1.4-1.456,6.4-5.17,5.511S940.81,170.95,940.81,170.95Z" transform="translate(-704.265 -136.092)" fill="#00abbd"/><path d="M918.2,140.56s3.989,7.269,3.84,8.653-6.08,2.938-7.278-2.3S918.2,140.56,918.2,140.56Z" transform="translate(-685.555 -114.43)" fill="#00abbd"/><circle cx="2.715" cy="2.715" r="2.715" transform="translate(239.051 32.636) rotate(-72.474)" fill="#ffd037"/><circle cx="2.715" cy="2.715" r="2.715" transform="translate(234.801 29.842) rotate(-72.474)" fill="#ffd037"/><path d="M290.313,516.236s4.656-13.849-24.857-30.544c0,0-29.967-8.74-26.9-38.752,0,0-34.544,25.308-11.169,57.547s43.551,25.2,43.551,25.2Z" transform="translate(-189.95 -332.817)" fill="#00abbd"/><path d="M319.382,522.491s-14.4-15.563-28.2-21.58a27.487,27.487,0,0,1-7.5-4.994,34.316,34.316,0,0,1-10.368-31.879l3.317-17.1" transform="translate(-228.017 -332.817)" fill="none" stroke="#535461" stroke-miterlimit="10" stroke-width="2"/><rect width="163.88" height="190.279" transform="translate(55.447 9.539)" fill="url(#a)"/><rect width="160.063" height="185.845" transform="translate(57.357 11.753)" fill="#f7f7fd"/><rect width="40.464" height="3.222" transform="translate(67.025 32.701)" fill="#e2e2ec"/><rect width="69.109" height="3.222" transform="translate(67.025 40.579)" fill="#e2e2ec"/><rect width="28.717" height="24.78" transform="translate(181.038 29.623)" fill="#fff"/><path d="M775.72,152.507V177H747.287V152.507H775.72m.287-.287H747v25.067h29.007Z" transform="translate(-566.117 -122.741)" fill="#e2e2ec"/><rect width="28.717" height="24.78" transform="translate(152.033 29.623)" fill="#fff"/><path d="M674.72,152.507V177H646.287V152.507H674.72m.287-.287H646v25.067h29.007Z" transform="translate(-494.125 -122.741)" fill="#e2e2ec"/><rect width="28.717" height="24.78" transform="translate(181.038 54.69)" fill="#fff"/><path d="M775.72,239.787V264.28H747.287V239.787H775.72m.287-.287H747v25.067h29.007Z" transform="translate(-566.117 -184.954)" fill="#e2e2ec"/><rect width="28.717" height="24.78" transform="translate(152.033 54.69)" fill="#fff"/><path d="M674.72,239.787V264.28H646.287V239.787H674.72m.287-.287H646v25.067h29.007Z" transform="translate(-494.125 -184.954)" fill="#e2e2ec"/><rect width="28.717" height="24.78" transform="translate(123.029 54.69)" fill="#fff"/><path d="M573.77,239.787V264.28H545.337V239.787H573.77m.287-.287H545.05v25.067h29.007Z" transform="translate(-422.168 -184.954)" fill="#e2e2ec"/><rect width="28.717" height="24.78" transform="translate(94.024 54.69)" fill="#fff"/><path d="M472.78,239.787V264.28H444.347V239.787H472.78m.287-.287H444.06v25.067h29.007Z" transform="translate(-350.182 -184.954)" fill="#e2e2ec"/><rect width="28.717" height="24.78" transform="translate(65.02 54.69)" fill="#fff"/><path d="M371.79,239.787V264.28H343.357V239.787H371.79m.287-.287H343.07v25.067h29.007Z" transform="translate(-278.197 -184.954)" fill="#e2e2ec"/><rect width="28.717" height="24.78" transform="translate(181.038 79.754)" fill="#fff"/><path d="M775.72,327.067V351.56H747.287V327.067H775.72m.287-.287H747v25.067h29.007Z" transform="translate(-566.117 -247.167)" fill="#e2e2ec"/><rect width="28.717" height="24.78" transform="translate(152.033 79.754)" fill="#fff"/><path d="M674.72,327.067V351.56H646.287V327.067H674.72m.287-.287H646v25.067h29.007Z" transform="translate(-494.125 -247.167)" fill="#e2e2ec"/><rect width="28.717" height="24.78" transform="translate(123.029 79.754)" fill="#fff"/><path d="M573.77,327.067V351.56H545.337V327.067H573.77m.287-.287H545.05v25.067h29.007Z" transform="translate(-422.168 -247.167)" fill="#e2e2ec"/><rect width="28.717" height="24.78" transform="translate(94.024 79.754)" fill="#fff"/><path d="M472.78,327.067V351.56H444.347V327.067H472.78m.287-.287H444.06v25.067h29.007Z" transform="translate(-350.182 -247.167)" fill="#e2e2ec"/><rect width="28.717" height="24.78" transform="translate(65.02 79.754)" fill="#fff"/><path d="M371.79,327.067V351.56H343.357V327.067H371.79m.287-.287H343.07v25.067h29.007Z" transform="translate(-278.197 -247.167)" fill="#e2e2ec"/><rect width="28.717" height="24.78" transform="translate(181.038 104.821)" fill="#fff"/><path d="M775.72,414.337V438.83H747.287V414.337H775.72m.287-.287H747v25.067h29.007Z" transform="translate(-566.117 -309.373)" fill="#e2e2ec"/><rect width="28.717" height="24.78" transform="translate(152.033 104.821)" fill="#fff"/><path d="M674.72,414.337V438.83H646.287V414.337H674.72m.287-.287H646v25.067h29.007Z" transform="translate(-494.125 -309.373)" fill="#e2e2ec"/><rect width="28.717" height="24.78" transform="translate(123.029 104.821)" fill="#fff"/><path d="M573.77,414.337V438.83H545.337V414.337H573.77m.287-.287H545.05v25.067h29.007Z" transform="translate(-422.168 -309.373)" fill="#e2e2ec"/><rect width="28.717" height="24.78" transform="translate(94.024 104.821)" fill="#fff"/><path d="M472.78,414.337V438.83H444.347V414.337H472.78m.287-.287H444.06v25.067h29.007Z" transform="translate(-350.182 -309.373)" fill="#e2e2ec"/><rect width="28.717" height="24.78" transform="translate(65.02 104.821)" fill="#fff"/><path d="M371.79,414.337V438.83H343.357V414.337H371.79m.287-.287H343.07v25.067h29.007Z" transform="translate(-278.197 -309.373)" fill="#e2e2ec"/><rect width="28.717" height="24.78" transform="translate(181.038 129.885)" fill="#fff"/><path d="M775.72,501.617v24.49H747.287v-24.49H775.72m.287-.287H747v25.064h29.007Z" transform="translate(-566.117 -371.586)" fill="#e2e2ec"/><rect width="28.717" height="24.78" transform="translate(152.033 129.885)" fill="#fff"/><path d="M674.72,501.617v24.49H646.287v-24.49H674.72m.287-.287H646v25.064h29.007Z" transform="translate(-494.125 -371.586)" fill="#e2e2ec"/><rect width="28.717" height="24.78" transform="translate(123.029 129.885)" fill="#fff"/><path d="M573.77,501.617v24.49H545.337v-24.49H573.77m.287-.287H545.05v25.064h29.007Z" transform="translate(-422.168 -371.586)" fill="#e2e2ec"/><rect width="28.717" height="24.78" transform="translate(94.024 129.885)" fill="#fff"/><path d="M472.78,501.617v24.49H444.347v-24.49H472.78m.287-.287H444.06v25.064h29.007Z" transform="translate(-350.182 -371.586)" fill="#e2e2ec"/><rect width="28.717" height="24.78" transform="translate(65.02 129.885)" fill="#fff"/><path d="M371.79,501.617v24.49H343.357v-24.49H371.79m.287-.287H343.07v25.064h29.007Z" transform="translate(-278.197 -371.586)" fill="#e2e2ec"/><rect width="28.717" height="24.78" transform="translate(181.038 154.951)" fill="#fff"/><path d="M775.72,588.887V613.38H747.287V588.887H775.72m.287-.287H747v25.067h29.007Z" transform="translate(-566.117 -433.792)" fill="#e2e2ec"/><rect width="28.717" height="24.78" transform="translate(152.033 154.951)" fill="#fff"/><path d="M674.72,588.887V613.38H646.287V588.887H674.72m.287-.287H646v25.067h29.007Z" transform="translate(-494.125 -433.792)" fill="#e2e2ec"/><rect width="28.717" height="24.78" transform="translate(123.029 154.951)" fill="#fff"/><path d="M573.77,588.887V613.38H545.337V588.887H573.77m.287-.287H545.05v25.067h29.007Z" transform="translate(-422.168 -433.792)" fill="#e2e2ec"/><rect width="28.717" height="24.78" transform="translate(94.024 154.951)" fill="#fff"/><path d="M472.78,588.887V613.38H444.347V588.887H472.78m.287-.287H444.06v25.067h29.007Z" transform="translate(-350.182 -433.792)" fill="#e2e2ec"/><rect width="28.717" height="24.78" transform="translate(65.02 154.951)" fill="#fff"/><path d="M371.79,588.887V613.38H343.357V588.887H371.79m.287-.287H343.07v25.067h29.007Z" transform="translate(-278.197 -433.792)" fill="#e2e2ec"/><path d="M509.489,736.558a4.615,4.615,0,0,0,1.832-2.255,1.907,1.907,0,0,0-1.281-2.3,4.062,4.062,0,0,0-3.383.968,4.941,4.941,0,0,1-3.288,1.3,3.665,3.665,0,0,0,1.548-3.823,1.483,1.483,0,0,0-.431-.776,2.438,2.438,0,0,0-2.616.124c-2.484,1.436-3.176,4.179-3.191,6.657a10.3,10.3,0,0,1-.046-2.743,2.609,2.609,0,0,0-1.261-2.427,4.514,4.514,0,0,0-1.924-.37,4.62,4.62,0,0,0-3.122.724,2.177,2.177,0,0,0,.124,3.128,12.043,12.043,0,0,0,3.231,2.111,6.594,6.594,0,0,1,2.3,1.8,1.627,1.627,0,0,1,.172.322h7A20.122,20.122,0,0,0,509.489,736.558Z" transform="translate(-384.151 -534.109)" fill="#00abbd"/><circle cx="1.637" cy="1.637" r="1.637" transform="translate(67.171 56.821)" fill="#fc6681"/><circle cx="1.637" cy="1.637" r="1.637" transform="translate(71.261 56.821)" fill="#ffd037"/><circle cx="1.637" cy="1.637" r="1.637" transform="translate(124.979 81.089)" fill="#00abbd"/><circle cx="1.637" cy="1.637" r="1.637" transform="translate(129.071 81.089)" fill="#00abbd"/><circle cx="1.637" cy="1.637" r="1.637" transform="translate(212.509 127.989)" fill="#00abbd"/><circle cx="1.637" cy="1.637" r="1.637" transform="translate(213.328 126.082)" fill="#00abbd"/><circle cx="1.637" cy="1.637" r="1.637" transform="translate(214.146 124.445)" fill="#00abbd"/><circle cx="1.637" cy="1.637" r="1.637" transform="translate(183.605 56.821)" fill="#00abbd"/><circle cx="1.637" cy="1.637" r="1.637" transform="translate(187.695 56.821)" fill="#00abbd"/><circle cx="1.637" cy="1.637" r="1.637" transform="translate(191.788 56.821)" fill="#00abbd"/><circle cx="1.637" cy="1.637" r="1.637" transform="translate(195.877 56.821)" fill="#00abbd"/><circle cx="1.637" cy="1.637" r="1.637" transform="translate(183.605 107.537)" fill="#00abbd"/><circle cx="1.637" cy="1.637" r="1.637" transform="translate(187.695 107.537)" fill="#00abbd"/><circle cx="1.637" cy="1.637" r="1.637" transform="translate(191.788 107.537)" fill="#00abbd"/><circle cx="1.637" cy="1.637" r="1.637" transform="translate(195.877 107.537)" fill="#00abbd"/><circle cx="1.637" cy="1.637" r="1.637" transform="translate(96.075 81.089)" fill="#ffd037"/><circle cx="1.637" cy="1.637" r="1.637" transform="translate(67.171 105.903)" fill="#fc6681"/><path d="M855.486,286.958c1.8,1.06,4.6,1.749,8.142-.528l-.034,5.043c.253,3.446,4.529,16.057,4.529,16.057l3.016,10.368a81.126,81.126,0,0,1,3.314,22.554,21.582,21.582,0,0,0,.962,7.1c1.605,4.34-.632,9.931-1.6,12.014a50.465,50.465,0,0,1-4.977,1.4,3.406,3.406,0,0,0-.445.135l-.02-.029s-4.526,1.8-6.537,1.548c-1.5-.184-2.438,1.686-1.264,3.062a9.192,9.192,0,0,1-3.013.4c-2.01-.247-3.018,3.211.755,4.2s25.156,0,25.156,0a3.033,3.033,0,0,0,1.608-3.349c1.643-.063,2.668-.112,2.668-.112s3.774-1.723,0-6.425l-.2.152-.807-2.375v-3.208s4.779-22.976,3.271-25.693-2.263-16.551-2.263-16.551l.511-15.069c1.364-2.815,2.062-7.226,2.415-10.675a22.649,22.649,0,0,0,.965-5.063c.06-.81.109-1.66.141-2.542a17.045,17.045,0,0,0-.936-5.684,56.388,56.388,0,0,1,5.7-7.154A7.341,7.341,0,0,0,898.8,260.1l-1.258-8.4-3.018-14.328c.379-3.975-.451-6.264-1.367-7.556.218-1.284.422-2.568.574-3.857a49.358,49.358,0,0,0-.882-16.8,11.373,11.373,0,0,0-2.378-5.348c-1.525-1.649-4-2.654-4.569-4.813a13.944,13.944,0,0,0-.35-1.626c-.552-1.413-2.3-1.927-3.826-2.111-2.723-.33-6.66-.574-9.276.488a11.255,11.255,0,0,0-5.342,5.009,3.766,3.766,0,0,0-.164,4.136,9.478,9.478,0,0,0-.586,3.3,9.639,9.639,0,0,0,6.152,8.941c.06.19.115.376.161.56a9.624,9.624,0,0,1,.247,1.347c-.049.862-.1,1.749-.144,2.625q-.043.181-.092.356a64.712,64.712,0,0,0-6.318,3.222c1.511,2.223-.253,11.612-.253,11.612-3.774,2.223-7.548,7.907-3.521,13.834a14.791,14.791,0,0,1,1.761,12.35l-.629,9.659h0v.017l-.126,1.933h.049l-.049.732.109.02v.787a11.731,11.731,0,0,0-5.888,4.38,15.451,15.451,0,0,1-2.634,3.231,1.941,1.941,0,0,0,.3,3.151Zm30.374-25.664a9.189,9.189,0,0,1,.893-4.859q.887.017,1.778.02c.06.416.132.813.218,1.175.511,2.177-1.531,3.22-2.892,3.662Z" transform="translate(-642.753 -153.225)" fill="url(#b)"/><path d="M915.494,754.474l.968,2.9-3.159,3.159-10.408,2.421-7.5-.727.485-2.662h0a3.211,3.211,0,0,1,2.384-2.346c3.084-.724,8.966-2.378,10.2-4.673Z" transform="translate(-671.89 -550.655)" fill="#db8b8b"/><path d="M915.494,754.474l.968,2.9-3.159,3.159-10.408,2.421-7.5-.727.485-2.662h0a3.211,3.211,0,0,1,2.384-2.346c3.084-.724,8.966-2.378,10.2-4.673Z" transform="translate(-671.89 -550.655)" opacity="0.1"/><path d="M883.962,771.68l1.453-1.936-1.453-2.243s-4.357,1.758-6.293,1.516-2.9,3.159.727,4.116,24.205,0,24.205,0,3.63-1.694,0-6.293l-3.159,2.421s-5.325,2.9-7.987,2.421Z" transform="translate(-658.029 -560.841)" fill="#2e3037"/><path d="M881.1,773.95l7.5.727,10.408-2.421,3.159-3.159-.255-.77-.362-1.08-.362-1.051-7.019-1.936a4.347,4.347,0,0,1-1.436,1.436c-2.28,1.56-6.376,2.685-8.78,3.248a2.535,2.535,0,0,0-.287.089,3.2,3.2,0,0,0-2.085,2.257Z" transform="translate(-661.704 -559.002)" fill="#db8b8b"/><path d="M881.1,784.043l7.5.727,10.408-2.421,3.159-3.159-.255-.77-2.889,2.223s-5.325,2.9-7.987,2.421h-7.519l1.453-1.936-1.3-2.01a3.2,3.2,0,0,0-2.085,2.257Z" transform="translate(-661.704 -569.096)" opacity="0.1"/><path d="M869.632,783.479l1.453-1.936-1.453-2.243s-4.357,1.758-6.293,1.516-2.9,3.159.727,4.116,24.205,0,24.205,0,3.63-1.694,0-6.293l-3.159,2.421s-5.325,2.9-7.987,2.421Z" transform="translate(-647.814 -569.253)" fill="#2e3037"/><path d="M910.6,274.826s11.62,1.209,9.926-3.63a8.715,8.715,0,0,1-.359-4.274A11.845,11.845,0,0,1,922.22,262l-10.894,1.695a13.639,13.639,0,0,1,1.476,3.5C914.1,272.325,910.6,274.826,910.6,274.826Z" transform="translate(-682.731 -200.992)" fill="#db8b8b"/><path d="M944.833,498.82s-.241,10.408-2.662,15.492l-.485,14.765s.727,13.556,2.18,16.218-3.159,25.173-3.159,25.173v3.874s-7.755,2.9-9.926-.485l2.18-28.806-.968-39.938Z" transform="translate(-697.116 -369.797)" fill="#474463"/><path d="M944.833,498.82s-.241,10.408-2.662,15.492l-.485,14.765s.727,13.556,2.18,16.218-3.159,25.173-3.159,25.173v3.874s-7.755,2.9-9.926-.485l2.18-28.806-.968-39.938Z" transform="translate(-697.116 -369.797)" opacity="0.1"/><path d="M969.541,382.51l1.453,3.874,1.209,8.231a7.28,7.28,0,0,1-2.18,6.293,69.316,69.316,0,0,0-6.778,8.955l-4.6-13.786s4.6-.727,3.875-3.874a45.743,45.743,0,0,1-.488-8.978Z" transform="translate(-716.981 -286.891)" fill="#fc6681"/><path d="M969.541,382.51l1.453,3.874,1.209,8.231a7.28,7.28,0,0,1-2.18,6.293,69.316,69.316,0,0,0-6.778,8.955l-4.6-13.786s4.6-.727,3.875-3.874a45.743,45.743,0,0,1-.488-8.978Z" transform="translate(-716.981 -286.891)" opacity="0.05"/><path d="M921.66,765.7c3.1,4.882,7.938,2.117,8.794,1.565l-.35-1.068-7.019-1.936A4.347,4.347,0,0,1,921.66,765.7Z" transform="translate(-690.615 -559.002)" opacity="0.1"/><path d="M887.85,464.979c.241,3.389,4.357,15.733,4.357,15.733l2.9,10.158a80.821,80.821,0,0,1,3.191,22.1,21.466,21.466,0,0,0,.928,6.956c1.936,5.325-1.936,12.588-1.936,12.588,3.389,6.051,9.19,1.936,9.19,1.936v-3.871s4.6-21.06,3.389-25.173-1.694-15.25-1.694-15.25v-20.1a22.8,22.8,0,0,0,6.643-14.452c.057-.793.1-1.626.135-2.49.2-5.457-3.538-11.864-5-14.145-.35-.551-.574-.862-.574-.862l-21.373,8.478-.049.02v2.657Z" transform="translate(-666.515 -326.516)" fill="#474463"/><path d="M913.13,263.692a13.636,13.636,0,0,1,1.476,3.5,9.477,9.477,0,0,0,7.364-.27,11.847,11.847,0,0,1,2.054-4.92Z" transform="translate(-684.535 -200.992)" opacity="0.1"/><circle cx="9.44" cy="9.44" r="9.44" transform="translate(223.997 47.446)" fill="#db8b8b"/><path d="M887.85,449.275l.1.02c10.15,2.088,22.893-8.493,22.893-8.493a12.517,12.517,0,0,1-.882-1.8c-.35-.551-.575-.862-.575-.862l-21.373,8.478-.054.847Z" transform="translate(-666.515 -326.544)" opacity="0.1"/><path d="M883.983,291.761s13.556-8.231,17.913-4.842l6.051,7.754s3.874,1.209,3.159,8.955L914,317.664l-8.714,2.18s-5.083,4.842-.968,11.861c0,0-12.829,10.649-23,8.472l.727-11.376a14.733,14.733,0,0,0-1.695-12.1c-3.874-5.81-.241-11.376,3.389-13.556C883.742,303.14,885.433,293.941,883.983,291.761Z" transform="translate(-659.986 -218.171)" fill="#fc6681"/><path d="M868.113,477.75s-5.083.968-7.5,4.842a15.082,15.082,0,0,1-2.533,3.159,1.921,1.921,0,0,0,.287,3.062c1.921,1.149,5.055,1.864,9.012-1.387C874.164,481.866,868.113,477.75,868.113,477.75Z" transform="translate(-644.842 -354.778)" fill="#db8b8b"/><path d="M900.327,321.379s4.842-.485,6.051,12.1,3.159,15.492,3.159,15.492,1.209,6.537-1.694,10.408-8.473,12.1-8.473,12.1-6.051,1.694-7.26-4.357l7.5-14.038s1.209-4.842-1.694-8.231S892.822,318.958,900.327,321.379Z" transform="translate(-669.552 -243.188)" opacity="0.1"/><path d="M898.607,318.849s4.842-.485,6.051,12.1,3.159,15.492,3.159,15.492,1.209,6.537-1.694,10.408-8.473,12.1-8.473,12.1-6.051,1.695-7.26-4.357l7.5-14.038s1.209-4.842-1.694-8.231S891.111,316.428,898.607,318.849Z" transform="translate(-668.326 -241.384)" fill="#fc6681"/><path d="M905.007,350.9s-.482,7.5,1.689,11.62,2.18,9.44,0,12.35" transform="translate(-678.712 -264.36)" opacity="0.1"/><path d="M900.91,308.666s1.936-1.936,7.5-2.18,7.987-1.936,7.987-1.936" transform="translate(-675.824 -231.322)" opacity="0.1"/><path d="M911.923,204.489c1.47.181,3.159.686,3.682,2.068a14.177,14.177,0,0,1,.336,1.594c.549,2.114,2.929,3.1,4.4,4.716a11.423,11.423,0,0,1,2.3,5.239,49.23,49.23,0,0,1,.862,16.445c-.471,4.021-1.436,7.967-1.706,12s.224,8.274,2.427,11.663a29.122,29.122,0,0,1,2.872,4.34c-1.387,1.126-3.3,1.287-5.092,1.347q-3.122.106-6.247,0a6.661,6.661,0,0,1-3.173-.661,4.9,4.9,0,0,1-1.666-1.789,12.719,12.719,0,0,1-1.436-6.8c.055-2.344.422-4.676.465-7.022a6.142,6.142,0,0,0-.813-3.682,11.986,11.986,0,0,0-2.028-1.875c-2.585-2.3-3.481-5.98-3.567-9.44s.485-6.927.192-10.377c-.115-1.35-.62-2.973-1.947-3.234a6.852,6.852,0,0,1-1.264-.161c-1.066-.411-.962-1.913-1.267-3.013-.342-1.235-1.4-2.188-1.692-3.446-.7-2.929,3.03-6.425,5.474-7.444C905.516,203.92,909.3,204.167,911.923,204.489Z" transform="translate(-673.374 -159.799)" opacity="0.1"/><path d="M912.763,202.8c1.471.181,3.159.686,3.682,2.068a14.206,14.206,0,0,1,.336,1.594c.548,2.114,2.929,3.1,4.4,4.716a11.421,11.421,0,0,1,2.3,5.239,49.226,49.226,0,0,1,.862,16.445c-.471,4.021-1.436,7.967-1.706,12s.224,8.274,2.427,11.663a29.109,29.109,0,0,1,2.872,4.34c-1.387,1.126-3.3,1.287-5.092,1.347q-3.122.106-6.247,0a6.661,6.661,0,0,1-3.174-.661,4.9,4.9,0,0,1-1.666-1.789,12.723,12.723,0,0,1-1.436-6.8c.055-2.344.422-4.676.465-7.022a6.143,6.143,0,0,0-.813-3.682,11.993,11.993,0,0,0-2.028-1.875c-2.585-2.3-3.481-5.98-3.567-9.44s.485-6.927.192-10.377c-.115-1.35-.62-2.973-1.947-3.234a6.855,6.855,0,0,1-1.264-.161c-1.066-.411-.962-1.913-1.266-3.013-.342-1.235-1.4-2.188-1.692-3.446-.7-2.929,3.03-6.425,5.474-7.444C906.356,202.232,910.144,202.479,912.763,202.8Z" transform="translate(-673.973 -158.597)" fill="#472727"/></g></svg>