<svg xmlns="http://www.w3.org/2000/svg" xmlns:xlink="http://www.w3.org/1999/xlink" width="294.547" height="212.257" viewBox="0 0 294.547 212.257"><defs><linearGradient id="a" x1="0.5" y1="1" x2="0.5" gradientUnits="objectBoundingBox"><stop offset="0" stop-color="gray" stop-opacity="0.251"/><stop offset="0.54" stop-color="gray" stop-opacity="0.122"/><stop offset="1" stop-color="gray" stop-opacity="0.102"/></linearGradient><linearGradient id="b" x1="0.5" y1="1" x2="0.5" y2="0" xlink:href="#a"/></defs><g transform="translate(0.001 -0.015)"><path d="M228.077,109.339c-18.883-.656-36.882-6.753-54.043-13.421s-34.17-14.059-52.611-17.592c-11.856-2.275-25.416-2.6-34.967,3.761C77.262,88.2,74.293,98.76,72.7,108.555c-1.2,7.371-1.9,15.127,1.386,22.029,2.286,4.789,6.343,8.816,9.15,13.4,9.763,15.965,2.861,35.653-7.721,51.255-4.963,7.322-10.72,14.289-14.549,22.075s-5.6,16.705-2.251,24.646c3.322,7.865,11.235,13.782,19.811,17.939,17.416,8.437,37.937,10.85,57.948,12.233,44.3,3.029,88.831,1.717,133.244.4,16.437-.488,32.947-.979,49.115-3.525,8.979-1.413,18.251-3.653,24.771-9.061,8.274-6.867,10.327-18.49,4.781-27.1-9.3-14.438-35.019-18.026-41.522-33.522-3.577-8.529.1-18.031,5.3-25.942,11.154-16.968,29.855-31.857,30.84-51.255.678-13.324-8.312-26.664-22.213-32.969-14.568-6.614-34.772-5.779-45.519,5.153C264.2,105.583,244.747,109.917,228.077,109.339Z" transform="translate(-56.94 -71.896)" fill="#00abbd" opacity="0.1"/><path d="M209.277,658.8s-14.916-11.276-17.733-25.619a28.35,28.35,0,0,0-8.735-15.65,47.745,47.745,0,0,0-6.989-5.207" transform="translate(-143.582 -462.162)" fill="none" stroke="#535461" stroke-miterlimit="10" stroke-width="2"/><path d="M149.785,574.669c1.307,1.768,1.9,9.261,1.9,9.261s-6.989-2.753-8.3-4.518a3.983,3.983,0,0,1,6.4-4.743Z" transform="translate(-119.372 -433.546)" fill="#00abbd"/><path d="M193.927,590.651c.136,2.194-3.436,8.806-3.436,8.806s-4.374-6.113-4.513-8.307a3.981,3.981,0,1,1,7.946-.5Z" transform="translate(-150.979 -443.65)" fill="#00abbd"/><path d="M239.568,647.489c-.987,1.963-7.412,5.869-7.412,5.869s-.686-7.485.3-9.448a3.981,3.981,0,1,1,7.111,3.58Z" transform="translate(-184.471 -483.587)" fill="#00abbd"/><path d="M262.585,703.927c-.643,2.1-6.313,7.035-6.313,7.035s-1.944-7.26-1.3-9.364a3.982,3.982,0,1,1,7.615,2.329Z" transform="translate(-201.172 -525.174)" fill="#00abbd"/><path d="M169.524,631.445c2.17.293,9.028-2.8,9.028-2.8s-5.787-4.795-7.968-5.088a3.981,3.981,0,0,0-1.06,7.892Z" transform="translate(-136.478 -470.323)" fill="#00abbd"/><path d="M194.342,695.286c2.17-.372,7.775-5.375,7.775-5.375s-6.959-2.842-9.126-2.471a3.981,3.981,0,1,0,1.356,7.846Z" transform="translate(-153.688 -516.885)" fill="#00abbd"/><path d="M231.894,753.252c2.2,0,8.572-3.984,8.572-3.984s-6.376-3.978-8.575-3.978a3.981,3.981,0,0,0,0,7.962Z" transform="translate(-181.545 -559.071)" fill="#00abbd"/><path d="M833.49,318.342s9.193-16.285,23.051-20.977a28.348,28.348,0,0,0,14.351-10.736A47.55,47.55,0,0,0,875.121,279" transform="translate(-622.898 -219.235)" fill="none" stroke="#535461" stroke-miterlimit="10" stroke-width="2"/><path d="M995.1,249.623c-1.578,1.53-8.925,3.113-8.925,3.113s1.8-7.295,3.382-8.827a3.981,3.981,0,1,1,5.544,5.714Z" transform="translate(-734.172 -192.841)" fill="#00abbd"/><path d="M979.076,295.393c-2.17.428-9.185-2.235-9.185-2.235s5.478-5.153,7.634-5.573a3.981,3.981,0,1,1,1.551,7.808Z" transform="translate(-722.307 -225.423)" fill="#00abbd"/><path d="M929.729,348.612c-2.077-.719-6.8-6.566-6.8-6.566s7.322-1.676,9.4-.957a3.981,3.981,0,1,1-2.606,7.523Z" transform="translate(-688.082 -264.355)" fill="#00abbd"/><path d="M875.8,378.445c-2.169-.358-7.8-5.334-7.8-5.334s6.94-2.891,9.107-2.533a3.985,3.985,0,1,1-1.294,7.865Z" transform="translate(-648.049 -285.955)" fill="#00abbd"/><path d="M947.3,276.41c0,2.2,3.987,8.58,3.987,8.58s3.984-6.373,3.984-8.57a3.981,3.981,0,1,0-7.959,0Z" transform="translate(-705.844 -214.378)" fill="#00abbd"/><path d="M887.5,310.087c.656,2.1,6.362,6.994,6.362,6.994s1.9-7.273,1.237-9.372a3.981,3.981,0,0,0-7.593,2.378Z" transform="translate(-662.161 -238.222)" fill="#00abbd"/><path d="M834.868,354.413c.293,2.17,5.088,7.965,5.088,7.965s3.094-6.848,2.8-9.025a3.981,3.981,0,1,0-7.889,1.06Z" transform="translate(-623.865 -270.84)" fill="#00abbd"/><path d="M995.1,249.623c-1.578,1.53-8.925,3.113-8.925,3.113s1.8-7.295,3.382-8.827a3.981,3.981,0,1,1,5.544,5.714Z" transform="translate(-734.172 -192.841)" opacity="0.25"/><path d="M979.076,295.393c-2.17.428-9.185-2.235-9.185-2.235s5.478-5.153,7.634-5.573a3.981,3.981,0,1,1,1.551,7.808Z" transform="translate(-722.307 -225.423)" opacity="0.25"/><path d="M929.729,348.612c-2.077-.719-6.8-6.566-6.8-6.566s7.322-1.676,9.4-.957a3.981,3.981,0,1,1-2.606,7.523Z" transform="translate(-688.082 -264.355)" opacity="0.25"/><path d="M875.8,378.445c-2.169-.358-7.8-5.334-7.8-5.334s6.94-2.891,9.107-2.533a3.985,3.985,0,1,1-1.294,7.865Z" transform="translate(-648.049 -285.955)" opacity="0.25"/><path d="M947.3,276.41c0,2.2,3.987,8.58,3.987,8.58s3.984-6.373,3.984-8.57a3.981,3.981,0,1,0-7.959,0Z" transform="translate(-705.844 -214.378)" opacity="0.25"/><path d="M887.5,310.087c.656,2.1,6.362,6.994,6.362,6.994s1.9-7.273,1.237-9.372a3.981,3.981,0,0,0-7.593,2.378Z" transform="translate(-662.161 -238.222)" opacity="0.25"/><path d="M834.868,354.413c.293,2.17,5.088,7.965,5.088,7.965s3.094-6.848,2.8-9.025a3.981,3.981,0,1,0-7.889,1.06Z" transform="translate(-623.865 -270.84)" opacity="0.25"/><path d="M835.44,280.923S837.246,262.308,848,252.41a28.358,28.358,0,0,0,8.77-15.631,47.557,47.557,0,0,0,.784-8.678" transform="translate(-624.319 -182.139)" fill="none" stroke="#535461" stroke-miterlimit="10" stroke-width="2"/><path d="M921.276,190.249c-.814,2.039-6.9,6.465-6.9,6.465s-1.307-7.4-.485-9.44a3.982,3.982,0,0,1,7.385,2.983Z" transform="translate(-681.297 -150.568)" fill="#00abbd"/><path d="M922.562,236.028c-1.8,1.264-9.3,1.679-9.3,1.679s2.923-6.926,4.721-8.19a3.981,3.981,0,1,1,4.58,6.509Z" transform="translate(-681.035 -182.593)" fill="#00abbd"/><path d="M894.039,305.062c-2.191.184-8.879-3.254-8.879-3.254s6.02-4.5,8.212-4.686a3.982,3.982,0,0,1,.667,7.935Z" transform="translate(-660.555 -232.432)" fill="#00abbd"/><path d="M858.4,353.872c-2.129.542-9.3-1.7-9.3-1.7s5.172-5.454,7.3-6.007a3.981,3.981,0,1,1,2,7.707Z" transform="translate(-634.274 -268.092)" fill="#00abbd"/><path d="M883.273,237c.889,2.01,7.111,6.237,7.111,6.237s1.058-7.441.168-9.451a3.981,3.981,0,0,0-7.279,3.222Z" transform="translate(-658.958 -184.621)" fill="#00abbd"/><path d="M841.79,291.243c1.451,1.652,8.648,3.816,8.648,3.816s-1.215-7.417-2.666-9.069a3.981,3.981,0,1,0-5.983,5.253Z" transform="translate(-628.225 -223.342)" fill="#00abbd"/><path d="M812.174,353.892c1.15,1.871,7.878,5.22,7.878,5.22s.057-7.515-1.085-9.389a3.981,3.981,0,0,0-6.78,4.168Z" transform="translate(-606.986 -269.47)" fill="#00abbd"/><path d="M784.44,140.674c.45-1.652.992-3.311,1.372-4.984C785.357,137.363,784.812,139.028,784.44,140.674Z" transform="translate(-587.15 -114.789)" fill="url(#a)"/><path d="M392.728,100.453c-.038-.065-.065-.13-.095-.19h0c0-.027-.027-.049-.038-.076a1.7,1.7,0,0,1-.182.073c-.119.046-.241.089-.366.125s-.176.054-.271.076a1.58,1.58,0,0,1-.241.062l.022.049c.1-.022.2-.041.3-.068l.027.336c.114,0,.22-.016.323-.016a1.332,1.332,0,0,1,.146,0h.542C392.837,100.7,392.777,100.575,392.728,100.453Zm55.052,87.63c-1.275-1.717-3.818-20.141-3.818-20.141s-5-13.1-3.639-18.33-3.726-18.606-3.726-18.606-3.363-1.462-3.545-3.631c0,0-13.73-4.339-14.373-7.593-.521-2.669-9.036-4.583-12.1-5.188-.933-3.764-1.871-7.276-2.563-9.193-.187-.6-.363-1.112-.526-1.519-1.169-2.983-4.781-3.254-7.4-3.016a4.035,4.035,0,0,0-.621-1.418.779.779,0,0,0-.247-.377,1.449,1.449,0,0,0-.179-.13.858.858,0,0,0-.184-.233,1.3,1.3,0,0,0-.244-.174,1.621,1.621,0,0,0-.2-.089,2.6,2.6,0,0,0-.485-.133,4,4,0,0,0-.586-.076,3.566,3.566,0,0,0,1.25-.914,2.606,2.606,0,0,0,.512-.944,2.779,2.779,0,0,0,.114-.889,2.3,2.3,0,0,1-.244.35c.114-1.2-.521-2.422-.884-3.618a10.706,10.706,0,0,1-.239-4.787h0c.363-2.4,1.264-4.833,1.874-7.279a.171.171,0,0,0,0-.041,18.891,18.891,0,0,0,.591-3.713,16.384,16.384,0,0,0-1.584-7.36c-.925-2.042-2.289-4.052-4.377-4.881a15.7,15.7,0,0,0-4.96-.629c-3.748-.233-7.322-1.551-10.886-2.75s-7.23-2.289-10.981-2.08-7.61,2.018-9.321,5.337a33.449,33.449,0,0,1-1.5,3.162c-1.215,1.836-3.39,2.755-5.2,4.022a10.291,10.291,0,0,0-4.068,5.21A6.951,6.951,0,0,0,343.3,80h0a6.4,6.4,0,0,0,.228.786,5.573,5.573,0,0,0,1.18,1.928,5.752,5.752,0,0,0,1.34,1.039h0a7.885,7.885,0,0,0,1.98.77c-.024.081-.049.168-.076.252-.043.138-.081.271-.122.42-.089.334-.173.673-.244,1.014a.316.316,0,0,0,0,.073,22.148,22.148,0,0,0-.5,4.694,21.7,21.7,0,0,0,.114,2.235h0a22.6,22.6,0,0,0,21.394,20.25c.385.019.773.03,1.166.03h.542c.176.233.35.472.515.705s.317.472.461.705l-.393-.407h0l-.393-.361a3.2,3.2,0,0,1-.355.41,6.589,6.589,0,0,0-.784-.222h0a10.05,10.05,0,0,0-5.1.339,22.287,22.287,0,0,0-7.577,4.325l-14.457,8.678-7.821,4.757-2.818,6.888s-2.118,8.185-4.475,17.562c-.092.027-.182.054-.271.087a5.074,5.074,0,0,0-.575-.033A5.285,5.285,0,0,0,320.968,162c-4.686,5.7-4.952,11.39-3.851,14h0a3.726,3.726,0,0,0,.374.7,65.839,65.839,0,0,1,3.436,6.587c-.035.236-.057.434-.068.583a1.447,1.447,0,0,0,0,.146s.814,12.288-1.9,15.81a2.729,2.729,0,0,0,0,2.894h0c1.817,4.019,9,9.386,9,9.386s8.616-.046,13.416-.57c-.014.483-.024.963-.035,1.432-.108,4.74-.108,8.713-.108,8.713l-.179,4.971s-1.627,10.476-2.441,13.364c-.513,1.812.079,18.585.594,30.916H424.1c1-7.3-.41-29.459-.41-29.459a58.234,58.234,0,0,1-1.386-10.726.041.041,0,0,1,0-.035c0-.437,0-.862.016-1.28l.616-.022,1.106-.038h.1s.027-.1.089-.271h0a5.185,5.185,0,0,1,.594-1.185,2.94,2.94,0,0,1,2.319-1.426,6.279,6.279,0,0,0,2.633-1.253.05.05,0,0,0,.022,0c2.883-1.95,6.693-5.549,7.618-6.14,1.272-.814,7.363-6.237,7.363-6.237s.908-1.15,1.877-2.536l.035-.049c1.2-1.736,2.484-3.81,2.169-4.464-.542-1.172.363-3.973.363-3.973C452.051,196.661,449.055,189.8,447.78,188.083ZM395.34,104.67a1.093,1.093,0,0,1,.049.25c-.068-.089-.136-.184-.2-.271l-.065-.087-.046-.065.1-.141v.019h0a.94.94,0,0,1,.163.3Zm-.911-2.4c-.3.06-.529.114-.681.155-.193-.342-.377-.683-.542-1.031a7.863,7.863,0,0,1,1.223.876Zm-.51.428a.056.056,0,0,1,0-.016l.022.016h0c.111.073.22.144.32.217h0c.09.065.171.127.252.193a2.609,2.609,0,0,1-.174.271c-.095-.149-.184-.293-.271-.442A.977.977,0,0,1,393.919,102.7Zm-1.627-3.346a8.024,8.024,0,0,1,1.576,0h0a1.193,1.193,0,0,1,.2.024h0a2.256,2.256,0,0,1,.431.111,3.15,3.15,0,0,1,.572,1.521l-.146.022-.144.027c-.271.046-.542.092-.754.136l-.271.057c-.361.079-.57.138-.578.141-.035-.073-.071-.141-.108-.212-.06-.117-.122-.236-.176-.353s-.125-.249-.182-.372c-.038-.065-.065-.13-.095-.19h0c0-.027-.027-.049-.038-.076a.669.669,0,0,1-.041-.089c-.165-.336-.317-.673-.464-1-.016-.033-.03-.068-.043-.1l.206-.014v.071Zm-64.7,168.231a67.269,67.269,0,0,0-1.128-12.507c-.347-1.744-.705-3.487-1.068-5.2-.092-.428-.182-.852-.271-1.275l-.835.111h-.076c-2.278-10.742-4.659-20.206-4.659-20.206s-4.729-18.059-4.182-19.5a3.49,3.49,0,0,0-.22-1.432c-1.144-4.106-5.923-15.42-7.593-19.287h0a.152.152,0,0,0-.019-.049h0c-.271-.648-.466-1.085-.526-1.212l.393-5.771.022-.347.052-.738-.022-.019.022-.342a39.566,39.566,0,0,0-11.119-5.828c-.271-.1-.559-.193-.843-.285.35-2.335.814-4.971,1.418-7.539.057-.258.119-.507.184-.759h0c.057-.252.122-.5.187-.743.1-.4.214-.8.328-1.188.377-.119.749-.252,1.115-.393l.141-.054a20.014,20.014,0,0,0,12.2-23.322h0a19.9,19.9,0,0,0-3.493-7.363h0c-.125-.168-.258-.336-.391-.5s-.293-.35-.442-.518c.784-1.782,1.708-3.477,1.784-5.21a5.359,5.359,0,0,0,0-.659h0v-.027a5.57,5.57,0,0,0-1.744-3.428,11.658,11.658,0,0,0-6.457-3.043c-2.389-.423-4.825-.434-7.227-.719-3.984-.477-7.865-1.706-11.848-2.083a28.152,28.152,0,0,0-14.327,2.441c-2.964,1.356-5.966,3.726-6.145,6.978-.146,2.688,1.725,5.264,1.253,7.919-.469,2.609-3.127,4.662-2.894,7.3a5.239,5.239,0,0,0,1.28,2.774h0c.228.271.469.542.719.814a11.735,11.735,0,0,1,2.568,3.292c.022.054.043.108.062.163a3.059,3.059,0,0,1-.881,3.61.041.041,0,0,1,.014.019h0c.016.022.032.038.046.06a.019.019,0,0,0,0-.014,2.967,2.967,0,0,0,1.548.965l.23.071c-.187.2-.363.415-.542.637l-.117.155a11.3,11.3,0,0,0-.814,1.261c-.138.244-.271.488-.382.732a9.2,9.2,0,0,0-.8,2.351c-.29,1.8.119,3.667-.32,5.424-.542,2.169-2.259,3.835-3.227,5.85-1.833,3.8-.795,8.252-.426,12.445.5,5.7-.312,11.414-1.123,17.071q-.645,4.513-1.291,9.033l-3.254,22.693c-.4,2.772-.865,5.695-2.712,7.835h.019a.024.024,0,0,1-.019.022,5.666,5.666,0,0,0,1.746.45h0c2.411.241,4.966-.925,7.135-2.2a33.725,33.725,0,0,0,4.862-3.414q-.334,1.22-.716,2.655a.155.155,0,0,1,0,.027h0c-3.062,11.661-7.987,33.039-7.987,33.039s-.447.93-1.028,2.316h76.476c-.895-1.085-1.728-2.123-2.378-2.961ZM270.963,159.755c.019-.033.033-.062.052-.092v.588h0a2,2,0,0,1-.043.334v.024l.271.1.315.13h0q2.788,1.1,5.646,1.993c.2.062.393.122.591.179l.041.336c.049.344.095.694.138,1.044v.027c.122.968.241,1.934.347,2.877,0,0-4.979-1.9-4.917.984a1.419,1.419,0,0,0,0,.155,1.3,1.3,0,0,0,0,.206,14.371,14.371,0,0,0,.89,4.26.194.194,0,0,1-.043.076,1.483,1.483,0,0,0-.119.838,8.24,8.24,0,0,0,.114,1.448c-.146.09-.29.179-.434.271h0c-.108.068-.211.144-.317.22a40.271,40.271,0,0,0-2.6-6.7,11.372,11.372,0,0,1-1.576-4.819,2.731,2.731,0,0,1,.014-.331,5.7,5.7,0,0,1,.277-1.435c.062-.176.13-.35.206-.521a12.772,12.772,0,0,1,.594-1.188h0c.141-.255.29-.507.434-.762.046-.076.09-.155.133-.231Zm121.765-59.3c-.038-.065-.065-.13-.095-.19h0c0-.027-.027-.049-.038-.076a1.7,1.7,0,0,1-.182.073c-.119.046-.241.089-.366.125s-.176.054-.271.076l-.241.062.022.049c.1-.022.2-.041.3-.068l.027.336c.114,0,.22-.016.323-.016h.689C392.837,100.7,392.777,100.575,392.728,100.453Z" transform="translate(-197.455 -58.66)" fill="url(#b)"/><path d="M525.624,355.733l-1.627.719s-10.606,41.2-10.606,44.535,22.49,21.861,22.49,21.861l3.509-23.686S534.35,344.844,525.624,355.733Z" transform="translate(-389.606 -274.107)" fill="#e8f5ff"/><path d="M691.057,224.566l-9.4-4.9a18.821,18.821,0,0,0-2.755-6.278,13.985,13.985,0,0,0-5.481-4.952c-5.757-2.582,24.353-16.133,24.353-16.133a49,49,0,0,0,1.673,4.8c1.551,3.829,4.125,8.781,7.442,10.191C712.53,209.691,691.057,224.566,691.057,224.566Z" transform="translate(-505.707 -156.047)" fill="#ffc1c7"/><path d="M699.45,197.1A22.449,22.449,0,0,1,678.9,213.385a13.987,13.987,0,0,0-5.481-4.952c-5.757-2.582,24.353-16.133,24.353-16.133A49.018,49.018,0,0,0,699.45,197.1Z" transform="translate(-505.706 -156.047)" opacity="0.1"/><path d="M653.891,124.49a22.33,22.33,0,1,1-6.541-15.891A22.437,22.437,0,0,1,653.891,124.49Z" transform="translate(-459.302 -90.279)" fill="#ffc1c7"/><path d="M638.569,231.039l-6.118,14.276-5.4,9.475H609.779l-5.039-12.955,2.042-13.435h13.193l8.518-.48,2.877-.96,1.855,1.052Z" transform="translate(-440.741 -165.4)" fill="#575a89"/><path d="M738.857,230.463s3.816.814.4,3.615-15.206,11.71-15.206,11.71,4.141,3.688,3.284,8.008l13.72-7.648,2.441-12.236S743.768,230.235,738.857,230.463Z" transform="translate(-543.137 -183.853)" opacity="0.1"/><path d="M703.215,287l-8.727,1.44s1.8,6.658.9,8.548a1.256,1.256,0,0,0-.068.182l-3.561,9.625,2.669,7.558,9.237-12.6-3.148-4.767s3.327-4.41,5.307-5.939S703.215,287,703.215,287Z" transform="translate(-519.604 -225.066)" opacity="0.1"/><path d="M703.215,285.63l-8.727,1.437s1.8,6.658.9,8.548a1.251,1.251,0,0,0-.068.182l-3.561,9.625,2.669,7.558,9.237-12.6-3.148-4.768s3.327-4.41,5.307-5.939S703.215,285.63,703.215,285.63Z" transform="translate(-519.604 -224.067)" fill="#dce6f2"/><path d="M739.223,227.813s3.816.814.4,3.615-15.569,12.429-15.569,12.429,4.5,2.97,3.645,7.287l13.719-7.645,2.441-12.236S744.127,227.585,739.223,227.813Z" transform="translate(-543.137 -181.922)" fill="#575a89"/><path d="M670.75,273.18s.832,1.557,4.507,4.363c0,0-6.118,3.254-3.778,7.829l-9.359-2.441-1.44-4.5Z" transform="translate(-496.952 -214.993)" opacity="0.1"/><path d="M669.427,271.86s.832,1.557,4.507,4.363c0,0-6.118,3.238-3.778,7.827l-9.356-2.441-1.44-4.5Z" transform="translate(-495.99 -214.031)" fill="#575a89"/><path d="M695.508,292.527,689.39,306.8,684,316.277H666.719l-5.039-12.955,2.039-13.435h3.669c-.06,3.135,1.085,6.818,1.011,8.187-.125,2.251,3.357,14.395,3.357,14.395s7.287-11.786,10.164-12.836c1.809-.659,5.641-6.142,8.242-10.134Z" transform="translate(-497.681 -226.888)" opacity="0.1"/><path d="M640.089,353.247l-.621.781s4.5,22.582,3.254,27.71a14.558,14.558,0,0,0-.361,2.815v.041a54.3,54.3,0,0,0,1.356,11.989s1.258,19.96.542,28.169H560.022c-.493-12.139-1.025-27.865-.542-29.609.814-2.877,2.441-13.315,2.441-13.315l.179-4.946s0-4.781.146-10.107c.062-2.395.155-4.909.287-7.138a37.7,37.7,0,0,1,.738-6.327,13.953,13.953,0,0,0,.347-2.679,1.389,1.389,0,0,1,.016-.258c0-.271.027-.564.038-.865v-.271c.052-1.746.033-3.818-.024-5.966v-.355c-.046-1.611-.114-3.254-.19-4.816-.236-4.881-.542-9.009-.542-9.009L552.57,294.811l2.788-6.867,7.737-4.74,14.305-8.637c6.978-5.736,11.572-5.047,13.324-4.418a4.625,4.625,0,0,1,.5.2c.054.027.1.049.138.073a1.15,1.15,0,0,1,.16.092h0a3.3,3.3,0,0,0-1.215,1,4.428,4.428,0,0,0-.751,1.627,7.565,7.565,0,0,0-.193,1.109c-.035.393-.049.8-.049,1.21a20.963,20.963,0,0,0,.231,2.682v.06c.089.635.2,1.256.309,1.839a.143.143,0,0,0,0,.03c.125.681.25,1.31.334,1.852.016.1.03.187.044.271a6.227,6.227,0,0,1,.084,1.085,13.181,13.181,0,0,0,.353,2.6c.07.358.152.74.241,1.139.122.542.255,1.134.4,1.736.079.331.163.673.249,1.012.033.136.068.271.1.41l.054.214c.578,2.3,1.2,4.583,1.589,5.966.228.814.372,1.315.372,1.315a101.238,101.238,0,0,1,7.344-10.362c.049-.054.092-.106.138-.155.323-.371.64-.71.944-1.009a5.577,5.577,0,0,1,1.741-1.307,1.883,1.883,0,0,0,.3-.138c1.334-.757,3.488-3.5,5.5-6.381.2-.271.391-.567.586-.846.447-.645.881-1.294,1.291-1.915.315-.475.615-.936.9-1.375,1.356-2.11,2.311-3.683,2.311-3.683l1.882-.084.328-.016h.22l8.545-.4s.369.062.976.185a.175.175,0,0,1,.1.022c3.032.6,11.455,2.509,11.97,5.153.629,3.238,14.216,7.558,14.216,7.558.179,2.17,3.507,3.6,3.507,3.6s5.039,13.315,3.691,18.533c-1.332,5.153,3.466,17.9,3.593,18.257h0l-.919,1.161Z" transform="translate(-418.16 -212.485)" fill="#e8f5ff"/><path d="M747.95,225.46s8.318-2.359,10.208,2.5,6.118,24.472,6.118,24.472-10.978,2.069-13.855,0a8.291,8.291,0,0,0-5.85-1.53l-6.208,4.228-1.833-.542s9.931-14.764,12.09-19.781S751.508,227.546,747.95,225.46Z" transform="translate(-552.232 -179.797)" opacity="0.1"/><path d="M746.649,221.46s8.323-2.359,10.221,2.5,6.118,24.472,6.118,24.472-10.975,2.069-13.855,0a8.282,8.282,0,0,0-5.847-1.529l-6.213,4.228-1.833-.542s9.931-14.764,12.09-19.781S750.207,223.551,746.649,221.46Z" transform="translate(-551.292 -176.882)" fill="#e8f5ff"/><path d="M571.179,511.55s6.208,1.53,7.379,5.039-4.589,3.6-4.589,3.6S570.461,513.98,571.179,511.55Z" transform="translate(-431.652 -388.72)" opacity="0.1"/><path d="M623.86,607.09s-15.2,31.13-11.694,34.1S623.86,607.09,623.86,607.09Z" transform="translate(-461.212 -458.35)" opacity="0.1"/><path d="M734,522.5s12.147,30.238,9.717,34.908,5.218,0,5.218,0Z" transform="translate(-550.388 -396.7)" opacity="0.1"/><path d="M712.4,632.64s-41.026,1.98-29.058,14.756,36.527.542,36.527.542Z" transform="translate(-511.872 -476.971)" fill="#ffc1c7"/><path d="M655.91,124.5a22.33,22.33,0,0,1-1.7,8.575c-.377.043-.754.071-1.117.087-.542-1.191-.252-2.565-.241-3.875s-.472-2.85-1.733-3.2c-2.514-.708-4.249,3.992-6.728,3.143-1.9-.645-1.4-3.525-2.495-5.188-.865-1.315-2.6-1.687-3.946-2.511-2.867-1.76-2.78-4.575-4.111-7.238-1.394-2.791-4.339-1.966-6.9-.32-1.942,1.253-3.618,2.932-5.695,3.93a14.087,14.087,0,0,1-5.812,1.228,12.771,12.771,0,0,1-3.645-.385,22.436,22.436,0,0,1,44.117,5.757Z" transform="translate(-461.321 -90.287)" opacity="0.1"/><path d="M614.481,87.036c-1.945,1.253-3.618,2.929-5.7,3.932a14.129,14.129,0,0,1-5.812,1.226c-2.441.054-5.069-.374-6.736-2.137a6.5,6.5,0,0,1-1.25-6.265,10.175,10.175,0,0,1,4.027-5.188c1.825-1.283,3.943-2.17,5.153-4.005a32.388,32.388,0,0,0,1.481-3.149c1.7-3.306,5.524-5.1,9.221-5.318s7.36.879,10.88,2.072,7.067,2.506,10.783,2.753a15.376,15.376,0,0,1,4.909.626c2.064.838,3.417,2.842,4.339,4.881a16.319,16.319,0,0,1,1.567,7.322c-.228,5.361-3.769,10.623-2.213,15.759.412,1.369,1.185,2.774.773,4.144-.6,2-3.181,2.454-5.266,2.549-.542-1.191-.252-2.568-.241-3.875s-.472-2.85-1.73-3.2c-2.517-.7-4.252,3.989-6.726,3.143-1.885-.648-1.4-3.525-2.492-5.188-.865-1.318-2.6-1.687-3.946-2.511-2.867-1.76-2.78-4.575-4.111-7.238C619.989,84.563,617.041,85.387,614.481,87.036Z" transform="translate(-448.852 -64.074)" fill="#99607e"/><path d="M509.235,513.165l-2.069.721s.814,12.236-1.9,15.745,8.906,12.233,8.906,12.233,15.924-.09,16.375-1.356-.814-22.672-.814-22.672-8.548-3.33-7.829-8.637c0,0-2.609,12.5-6.476,11.965S507.171,517.4,509.235,513.165Z" transform="translate(-383.387 -387.007)" fill="#e8f5ff"/><ellipse cx="5.459" cy="4.993" rx="5.459" ry="4.993" transform="translate(127.291 127.959)" opacity="0.1"/><path d="M516.939,453.12s-1.085-33.107-10.528-25.731-9.535,16.2-7.737,18.8,7.564,15.653,7.564,15.653h0A6.6,6.6,0,0,0,516,457.508Z" transform="translate(-378.22 -326.601)" fill="#ffc1c7"/><g transform="translate(146.062 19.336)" opacity="0.1"><path d="M783,147.793c.445-1.643.982-3.3,1.356-4.963C783.909,144.5,783.369,146.149,783,147.793Z" transform="translate(-732.162 -139.329)"/><path d="M641.837,151.3c-.542-1.191-.252-2.568-.241-3.875s-.472-2.837-1.73-3.2c-2.516-.7-4.252,3.992-6.725,3.143-1.9-.648-1.4-3.525-2.492-5.188-.865-1.318-2.6-1.687-3.943-2.511-2.869-1.76-2.782-4.575-4.111-7.238-1.4-2.793-4.339-1.969-6.9-.32-1.944,1.253-3.618,2.932-5.695,3.932a14.129,14.129,0,0,1-5.812,1.226c-2.427.057-5.069-.374-6.736-2.137a6.3,6.3,0,0,1-1.483-5.207c-.046.127-.087.255-.127.382a6.516,6.516,0,0,0,1.25,6.265c1.668,1.763,4.309,2.191,6.736,2.137a14.142,14.142,0,0,0,5.814-1.226c2.083-1,3.756-2.679,5.695-3.932,2.56-1.649,5.505-2.473,6.9.32,1.329,2.663,1.245,5.478,4.111,7.238,1.356.814,3.078,1.193,3.946,2.511,1.085,1.668.6,4.54,2.492,5.188,2.471.846,4.206-3.845,6.723-3.143,1.258.353,1.744,1.9,1.73,3.2s-.3,2.685.241,3.875c2.086-.095,4.665-.542,5.269-2.549a2.916,2.916,0,0,0,.114-.887C645.981,150.823,643.714,151.214,641.837,151.3Z" transform="translate(-595.536 -129.92)"/></g><path d="M826.841,373.05l3.149,3.33s2.519,18.352,3.778,20.068,4.231,8.545,1.44,13.673c0,0-.9,2.791-.361,3.959S830.8,421.1,830.8,421.1s-6.028,5.4-7.289,6.208-7.916,7.287-10.164,7.376-2.983,2.88-2.983,2.88l-12.686.45s-7.008-.366-8.532.624c0,0,.814-10.707-7.016-17.725l9.985-3.6s3.78-1.627,4.949-3.328a6.11,6.11,0,0,1,2.983-2.248s2.788-1.98,2.877-3.059,3.409-2.4,3.409-2.4l-1.879-16.041.99-26.631s3.148-22.314,9.806-21.053S826.841,373.05,826.841,373.05Z" transform="translate(-585.466 -265.514)" opacity="0.1"/><path d="M830.841,373.05l3.148,3.33s2.519,18.352,3.778,20.068,4.231,8.545,1.44,13.673c0,0-.9,2.791-.358,3.959S834.8,421.1,834.8,421.1s-6.029,5.4-7.29,6.208-7.916,7.287-10.164,7.376-2.983,2.88-2.983,2.88l-12.686.45s-7.013-.366-8.532.624c0,0,.814-10.707-7.016-17.725l9.985-3.6s3.78-1.627,4.949-3.328a6.11,6.11,0,0,1,2.983-2.248s2.788-1.98,2.877-3.059,3.409-2.4,3.409-2.4l-1.879-16.041.99-26.631s3.149-22.314,9.806-21.053S830.841,373.05,830.841,373.05Z" transform="translate(-588.381 -265.514)" fill="#e8f5ff"/><path d="M907.84,551.823s9.267-2.441,11.7.542S907.84,551.823,907.84,551.823Z" transform="translate(-677.085 -417.386)" opacity="0.1"/><path d="M899.88,569.44c3.149,2.2,12.865,2.294,12.865,2.294Z" transform="translate(-671.283 -430.911)" opacity="0.1"/><path d="M917.46,610.08c.271.089,6.679,6.929,9.37,4.86S917.46,610.08,917.46,610.08Z" transform="translate(-684.096 -460.529)" opacity="0.1"/><path d="M599.22,398.42s1.882,12.958.955,18.235,2.457,11.816,2.457,11.816Z" transform="translate(-452.159 -306.269)" opacity="0.1"/><path d="M376.431,411.222c-2.17,1.7-3.753,5.725-4.9,10.148a109.163,109.163,0,0,0-2.655,16.662s-17.275-3.959-16.017-5.757c.792-1.131-.271-9.652-1.158-15.83-.529-3.65-1-6.484-1-6.484S382.37,406.541,376.431,411.222Z" transform="translate(-271.036 -313.802)" fill="#ffccd0"/><path d="M376.431,409.895c-2.17,1.7-3.753,5.725-4.9,10.148a19.932,19.932,0,0,1-19.829-4.922c-.529-3.653-1-6.487-1-6.487S382.37,405.217,376.431,409.895Z" transform="translate(-271.036 -312.836)" opacity="0.1"/><path d="M372.416,327.1a19.981,19.981,0,1,1-4.4-12.5A19.981,19.981,0,0,1,372.416,327.1Z" transform="translate(-257.735 -239.732)" fill="#ffccd0"/><path d="M519.957,784.741h-5.7l-.48-10.058-.5-10.411s1.294-.193,3.355-.48l.833-.111h.068c.45,2.113.895,4.282,1.323,6.449a66.259,66.259,0,0,1,1.109,11.661v.8C519.984,783.312,519.968,784.036,519.957,784.741Z" transform="translate(-389.526 -572.474)" opacity="0.1"/><path d="M341.931,584.542H270.51c.309-.7.515-1.128.515-1.128s5.714-25,8.618-35.575a.133.133,0,0,0,0-.027,42.308,42.308,0,0,1,1.313-4.244h0a1.459,1.459,0,0,1,.127-.271c1.437-2.338,3.238-4.857.719-8.456s-1.627-19.433-1.627-19.433,3.059-13.5,6.3-20.695a9.68,9.68,0,0,1,2.056-2.983,8.4,8.4,0,0,1,.9-.765h0a7.886,7.886,0,0,1,.754-.5l.051-.033a10.88,10.88,0,0,1,4.429-1.375,12.635,12.635,0,0,1,3.322.092,49.581,49.581,0,0,1,12.795,3.526c9.055,3.978,11.8,9.31,11.851,9.421h0l.022.046c.363.849,5.679,13.259,7.593,19.048a8.118,8.118,0,0,1,.659,2.858c-.542,1.437,4.138,19.431,4.138,19.431s2.169,8.678,4.339,18.851c.095.423.184.846.271,1.275.388,1.847.773,3.729,1.144,5.608a65.927,65.927,0,0,1,1.109,11.743Q341.966,582.8,341.931,584.542Z" transform="translate(-212.593 -372.276)" fill="#ff748e"/><path d="M344.917,464.77s-4.928-1.9-4.868.982,1.2,4.258.841,4.678.179,2.94.179,2.94,6.658,0,9.717,1.378,14.335,4.138,15.775,4.979,6.78,4.61,6.78,4.61l.48-7.138a40.719,40.719,0,0,0-14.574-6.9A58.12,58.12,0,0,1,344.917,464.77Z" transform="translate(-263.273 -354.179)" opacity="0.1"/><path d="M344.917,463.44s-4.928-1.9-4.868.982,1.2,4.258.841,4.678.179,2.94.179,2.94,6.658,0,9.717,1.38,14.335,4.138,15.775,4.976,6.78,4.61,6.78,4.61l.485-7.116a40.718,40.718,0,0,0-14.574-6.9A57.661,57.661,0,0,1,344.917,463.44Z" transform="translate(-263.273 -353.21)" fill="#ff748e"/><path d="M412.85,528.43s9.416,10.194,8.936,13.017S412.85,528.43,412.85,528.43Z" transform="translate(-316.331 -401.022)" opacity="0.1"/><path d="M435.07,741.85s-3.658,7.439-1.679,6.959S435.07,741.85,435.07,741.85Z" transform="translate(-330.874 -556.564)" fill="none"/><path d="M330.821,664.22s-6.9,6.36-8.936,6.72,1.559,1.559,3.9.6,7.322-3.477,7.322-3.477Z" transform="translate(-249.598 -499.987)" opacity="0.1"/><path d="M469.15,783.021h-16.1c-2.251-1.953-4.38-3.762-5.736-4.849a18.716,18.716,0,0,1-4.732-6.365c-.225-.469-.42-.908-.586-1.307a21.812,21.812,0,0,1-.781-2.1l11.919-7.078a18.628,18.628,0,0,1,1.852,1.812l.144.165a4.9,4.9,0,0,1,1.3,2.395c.06.846,2.414,4.119,4.819,7.262,2.441,3.2,4.941,6.254,5.107,6.46h0s.412.562,1.085,1.424C467.916,781.462,468.5,782.21,469.15,783.021Z" transform="translate(-337.008 -570.754)" fill="#ffccd0"/><path d="M368.046,314.629a11.625,11.625,0,0,0-1.161,4.068c-.214,4.149.133,13.427-4.461,15.509-2.275,1.025-4.711-1.226-7.206-1.28a5.858,5.858,0,0,0-4.537,2.525,27.317,27.317,0,0,0-2.571,4.724,32.267,32.267,0,0,1-2.492,4.2,10.559,10.559,0,0,1-.922,1.163,19.976,19.976,0,1,1,23.35-30.9Z" transform="translate(-257.761 -239.759)" opacity="0.1"/><path d="M309.33,295.709c-.217,4.149.133,13.427-4.464,15.507-2.275,1.025-4.711-1.223-7.206-1.277a5.859,5.859,0,0,0-4.537,2.522,27.14,27.14,0,0,0-2.571,4.727,32.324,32.324,0,0,1-2.492,4.2,6.1,6.1,0,0,1-2.037,2.031c-1.5.781-3.311.342-4.917-.16q-3.124-.984-6.156-2.218a6.217,6.217,0,0,0,.071-.922c-.06.114-.125.22-.19.334l-.127.222c-.231.407-.456.814-.662,1.231-.079.16-.155.325-.222.491a6.235,6.235,0,0,0-.507,1.942c-.138,1.809.754,3.525,1.546,5.153,3.045,6.294,4.928,13.654,2.636,20.258-.993,2.872-2.712,5.424-3.968,8.2a26.488,26.488,0,0,0-1.852,15.669c.626,3.287,1.882,6.541,1.573,9.874-.542,5.736-5.489,10-10.444,12.939-2.677,1.578-5.953,2.983-8.795,1.736,1.812-2.115,2.278-5.041,2.669-7.8q1.6-11.295,3.214-22.6.643-4.5,1.283-9c.8-5.635,1.605-11.333,1.106-17-.363-4.179-1.388-8.616.423-12.4.957-2,2.663-3.664,3.195-5.822.437-1.755.03-3.62.317-5.408a9.2,9.2,0,0,1,.792-2.343,11.512,11.512,0,0,1,1.817-2.772,3.1,3.1,0,0,1-1.817-1.109,3.114,3.114,0,0,0,.814-3.756,11.541,11.541,0,0,0-2.538-3.279,6.331,6.331,0,0,1-1.988-3.58c-.231-2.633,2.4-4.673,2.864-7.271.469-2.644-1.386-5.215-1.237-7.892.174-3.235,3.146-5.587,6.08-6.951a27.662,27.662,0,0,1,14.178-2.441c3.954.374,7.781,1.6,11.724,2.072,2.378.271,4.789.3,7.151.716a11.489,11.489,0,0,1,6.392,3.032C314.83,287.131,309.58,290.892,309.33,295.709Z" transform="translate(-200.567 -217.503)" fill="#ffe0d0"/><path d="M357.088,614.689c-1.383-.6-3.9-.241-8.22-1.557s-5.153-7.26-5.153-7.26v-.019h0c-.052-.136-.453-1.02-3.17-4.117-3-3.42-9.492-20.692-9.492-20.692s-5.755-6.18-5.573-8.458-1.022-8.339-.9-15.119,12.955-11.276,12.955-11.276c24.714-4.38,18.894,24.112,18.235,26.27s2.761,7.989,2.761,7.989c-.483,2.538,1.98,6.468,1.98,6.468s.6,3.477.719,4.8a.813.813,0,0,0,.041.179c.4,1.245,3.623,2.373,4.936,3.059,1.38.721,5.82,7.018,5.82,7.018C372.98,606.6,358.466,615.3,357.088,614.689Z" transform="translate(-251.992 -413.634)" opacity="0.1"/><path d="M359.745,610.726c-1.38-.6-3.9-.241-8.217-1.559s-5.153-7.257-5.153-7.257v-.019h0c-.049-.138-.453-1.02-3.17-4.117-3-3.42-9.492-20.695-9.492-20.695s-5.755-6.178-5.576-8.456-1.02-8.339-.9-15.113,12.947-11.268,12.947-11.268c24.714-4.38,18.894,24.112,18.235,26.27s2.761,7.989,2.761,7.989c-.483,2.538,1.98,6.468,1.98,6.468s.6,3.477.721,4.8a.686.686,0,0,0,.038.179c.4,1.245,3.623,2.373,4.938,3.059,1.378.719,5.82,7.018,5.82,7.018C375.64,602.639,361.126,611.339,359.745,610.726Z" transform="translate(-253.93 -410.755)" fill="#ff748e"/><path d="M376.8,598.32s10.8,11.39,13.614,11.39S376.8,598.32,376.8,598.32Z" transform="translate(-290.058 -451.958)" opacity="0.1"/><path d="M411.2,734.751c-1.38-.6-3.9-.241-8.217-1.559s-5.153-7.257-5.153-7.257v-.019h0c2.861-1.9,10.107-7.26,12.963-9.221a20,20,0,0,0,4.61-4.735c.4,1.245,3.623,2.373,4.938,3.059,1.378.719,5.82,7.018,5.82,7.018C427.094,726.664,412.58,735.364,411.2,734.751Z" transform="translate(-305.385 -534.78)" fill="#ff748e"/><g transform="translate(53.443 64.332)" opacity="0.1"><path d="M302,406.2c.014.022.033.041.049.062.081-.1.165-.206.252-.3a2.018,2.018,0,0,1-.3.241Z" transform="translate(-288.986 -376.097)"/><path d="M273.316,437.487a10.23,10.23,0,0,1,1.673-4.155c-.494-.19-.987-.382-1.475-.583a6.143,6.143,0,0,0,.07-.919,10.542,10.542,0,0,0-1.708,4.217c-.138,1.812.754,3.526,1.546,5.153,3.048,6.292,4.928,13.652,2.636,20.258-1,2.869-2.712,5.424-3.967,8.2a26.476,26.476,0,0,0-1.85,15.667c.621,3.29,1.879,6.541,1.57,9.874-.542,5.736-5.486,10-10.444,12.936-2.026,1.2-4.393,2.3-6.658,2.218a8.194,8.194,0,0,1-.7.963c2.845,1.256,6.118-.157,8.795-1.741,4.96-2.929,9.915-7.187,10.457-12.933.309-3.333-.949-6.584-1.573-9.874a26.5,26.5,0,0,1,1.844-15.667c1.247-2.772,2.983-5.329,3.967-8.2,2.292-6.606.41-13.966-2.636-20.258C274.076,441,273.178,439.3,273.316,437.487Z" transform="translate(-254.01 -394.951)"/><path d="M366.721,296.6a7.834,7.834,0,0,0-.857-.759c3.287,4.263-1.459,7.886-1.695,12.475-.211,4.149.136,13.429-4.461,15.507-2.273,1.028-4.711-1.223-7.2-1.277a5.871,5.871,0,0,0-4.54,2.525,27.022,27.022,0,0,0-2.568,4.724,32.477,32.477,0,0,1-2.5,4.2,5.95,5.95,0,0,1-2.039,2.034c-1.492.778-3.306.342-4.914-.163q-2.346-.738-4.648-1.627a5.862,5.862,0,0,1-.071.843q3.035,1.237,6.159,2.218c1.605.5,3.42.941,4.914.163a6.1,6.1,0,0,0,2.039-2.037,31.957,31.957,0,0,0,2.492-4.2,27.064,27.064,0,0,1,2.571-4.727,5.871,5.871,0,0,1,4.537-2.522c2.495.054,4.933,2.305,7.206,1.277,4.6-2.077,4.247-11.358,4.461-15.507C365.858,304.925,371.109,301.166,366.721,296.6Z" transform="translate(-310.289 -295.84)"/></g><path d="M309.646,420.43c-.231.407-.456.814-.662,1.231-.079.16-.155.325-.222.491-1.421-1.432-4.881-4.835-6.812-5.89a11.569,11.569,0,0,1,1.817-2.772S308.369,415.923,309.646,420.43Z" transform="translate(-235.506 -317.253)" opacity="0.1"/><path d="M309.774,418.276c-1.066-4.824-6.007-7.436-6.007-7.436a11.513,11.513,0,0,0-1.817,2.772c2.037,1.115,5.79,4.852,7.035,6.118Z" transform="translate(-235.506 -315.321)" fill="#ff748e"/></g></svg>