<svg xmlns="http://www.w3.org/2000/svg" xmlns:xlink="http://www.w3.org/1999/xlink" width="270" height="212" viewBox="0 0 270 212"><defs><linearGradient id="a" x1="0.5" y1="1" x2="0.5" gradientUnits="objectBoundingBox"><stop offset="0" stop-color="gray" stop-opacity="0.251"/><stop offset="0.54" stop-color="gray" stop-opacity="0.122"/><stop offset="1" stop-color="gray" stop-opacity="0.102"/></linearGradient></defs><g transform="translate(-41 -1641)"><g transform="translate(41 1641)" stroke="#707070" stroke-width="1" opacity="0"><rect width="270" height="212" stroke="none"/><rect x="0.5" y="0.5" width="269" height="211" fill="none"/></g><g transform="translate(40.996 1669.256)"><path d="M140.857,243.035a85.427,85.427,0,0,1,59.472-9c28.87,6.138,65.155,3.732,72.183-43.62,12-80.871-38.3-102.216-38.3-102.216s-33.45-2.8-53.23-13.467c-28.1-15.155-60.21-17.085-88.449-4.262-18.058,8.193-32.929,19.6-35.47,35.266-7.1,43.808,4.563,67.944-17.263,82.244s-3.173,53.561,13.559,52.2,54.542-16.27,69.275,1C127.871,247.311,134.492,246.558,140.857,243.035Z" transform="translate(-29.89 -62)" fill="#00abbd" opacity="0.1"/><rect width="75.302" height="5.21" transform="translate(122.255 35.556)" fill="#00abbd" opacity="0.1"/><rect width="75.302" height="5.21" transform="translate(122.255 58.052)" fill="#00abbd" opacity="0.1"/><rect width="75.302" height="5.21" transform="translate(122.255 81.494)" fill="#00abbd" opacity="0.1"/><rect width="4.736" height="13.497" transform="translate(128.885 22.058)" fill="#00abbd" opacity="0.1"/><rect width="4.736" height="0.947" transform="translate(128.885 24.189)" fill="#00abbd" opacity="0.1"/><rect width="4.736" height="0.947" transform="translate(128.885 31.53)" fill="#00abbd" opacity="0.1"/><rect width="4.736" height="13.497" transform="translate(135.989 22.058)" fill="#00abbd" opacity="0.1"/><rect width="4.736" height="0.947" transform="translate(135.989 24.189)" fill="#00abbd" opacity="0.1"/><rect width="4.736" height="0.947" transform="translate(135.989 31.53)" fill="#00abbd" opacity="0.1"/><rect width="4.736" height="13.497" transform="translate(143.093 22.058)" fill="#00abbd" opacity="0.1"/><rect width="4.736" height="0.947" transform="translate(143.093 24.189)" fill="#00abbd" opacity="0.1"/><rect width="4.736" height="0.947" transform="translate(143.093 31.53)" fill="#00abbd" opacity="0.1"/><rect width="4.736" height="13.497" transform="translate(150.197 22.058)" fill="#00abbd" opacity="0.1"/><rect width="4.736" height="0.947" transform="translate(150.197 24.189)" fill="#00abbd" opacity="0.1"/><rect width="4.736" height="0.947" transform="translate(150.197 31.53)" fill="#00abbd" opacity="0.1"/><rect width="4.736" height="13.497" transform="translate(157.301 22.058)" fill="#00abbd" opacity="0.1"/><rect width="4.736" height="0.947" transform="translate(157.301 24.189)" fill="#00abbd" opacity="0.1"/><rect width="4.736" height="0.947" transform="translate(157.301 31.53)" fill="#00abbd" opacity="0.1"/><rect width="4.736" height="13.497" transform="translate(164.405 22.058)" fill="#00abbd" opacity="0.1"/><rect width="4.736" height="0.947" transform="translate(164.405 24.189)" fill="#00abbd" opacity="0.1"/><rect width="4.736" height="0.947" transform="translate(164.405 31.53)" fill="#00abbd" opacity="0.1"/><rect width="4.736" height="13.497" transform="translate(171.509 22.058)" fill="#00abbd" opacity="0.1"/><rect width="4.736" height="0.947" transform="translate(171.509 24.189)" fill="#00abbd" opacity="0.1"/><rect width="4.736" height="0.947" transform="translate(171.509 31.53)" fill="#00abbd" opacity="0.1"/><rect width="4.736" height="13.497" transform="matrix(0.894, -0.448, 0.448, 0.894, 169.208, 69.764)" fill="#00abbd" opacity="0.1"/><rect width="4.736" height="0.947" transform="matrix(0.894, -0.448, 0.448, 0.894, 170.164, 71.671)" fill="#00abbd" opacity="0.1"/><rect width="4.736" height="0.947" transform="matrix(0.894, -0.448, 0.448, 0.894, 173.453, 78.233)" fill="#00abbd" opacity="0.1"/><rect width="4.736" height="13.497" transform="translate(128.885 44.791)" fill="#00abbd" opacity="0.1"/><rect width="4.736" height="0.947" transform="translate(128.885 46.922)" fill="#00abbd" opacity="0.1"/><rect width="4.736" height="0.947" transform="translate(128.885 54.263)" fill="#00abbd" opacity="0.1"/><rect width="4.736" height="13.497" transform="translate(135.989 44.791)" fill="#00abbd" opacity="0.1"/><rect width="4.736" height="0.947" transform="translate(135.989 46.922)" fill="#00abbd" opacity="0.1"/><rect width="4.736" height="0.947" transform="translate(135.989 54.263)" fill="#00abbd" opacity="0.1"/><rect width="4.736" height="13.497" transform="translate(143.093 44.791)" fill="#00abbd" opacity="0.1"/><rect width="4.736" height="0.947" transform="translate(143.093 46.922)" fill="#00abbd" opacity="0.1"/><rect width="4.736" height="0.947" transform="translate(143.093 54.263)" fill="#00abbd" opacity="0.1"/><rect width="4.736" height="13.497" transform="translate(172.693 44.791)" fill="#00abbd" opacity="0.1"/><rect width="4.736" height="0.947" transform="translate(172.693 46.922)" fill="#00abbd" opacity="0.1"/><rect width="4.736" height="0.947" transform="translate(172.693 54.263)" fill="#00abbd" opacity="0.1"/><rect width="4.736" height="13.497" transform="translate(179.796 44.791)" fill="#00abbd" opacity="0.1"/><rect width="4.736" height="0.947" transform="translate(179.796 46.922)" fill="#00abbd" opacity="0.1"/><rect width="4.736" height="0.947" transform="translate(179.796 54.263)" fill="#00abbd" opacity="0.1"/><rect width="4.736" height="13.497" transform="translate(186.9 44.791)" fill="#00abbd" opacity="0.1"/><rect width="4.736" height="0.947" transform="translate(186.9 46.922)" fill="#00abbd" opacity="0.1"/><rect width="4.736" height="0.947" transform="translate(186.9 54.263)" fill="#00abbd" opacity="0.1"/><rect width="4.736" height="13.497" transform="translate(128.885 67.997)" fill="#00abbd" opacity="0.1"/><rect width="4.736" height="0.947" transform="translate(128.885 70.128)" fill="#00abbd" opacity="0.1"/><rect width="4.736" height="0.947" transform="translate(128.885 77.469)" fill="#00abbd" opacity="0.1"/><rect width="4.736" height="13.497" transform="translate(135.989 67.997)" fill="#00abbd" opacity="0.1"/><rect width="4.736" height="0.947" transform="translate(135.989 70.128)" fill="#00abbd" opacity="0.1"/><rect width="4.736" height="0.947" transform="translate(135.989 77.469)" fill="#00abbd" opacity="0.1"/><rect width="4.736" height="13.497" transform="translate(143.093 67.997)" fill="#00abbd" opacity="0.1"/><rect width="4.736" height="0.947" transform="translate(143.093 70.128)" fill="#00abbd" opacity="0.1"/><rect width="4.736" height="0.947" transform="translate(143.093 77.469)" fill="#00abbd" opacity="0.1"/><rect width="4.736" height="13.497" transform="translate(150.197 67.997)" fill="#00abbd" opacity="0.1"/><rect width="4.736" height="0.947" transform="translate(150.197 70.128)" fill="#00abbd" opacity="0.1"/><rect width="4.736" height="0.947" transform="translate(150.197 77.469)" fill="#00abbd" opacity="0.1"/><rect width="4.736" height="13.497" transform="translate(157.301 67.997)" fill="#00abbd" opacity="0.1"/><rect width="4.736" height="0.947" transform="translate(157.301 70.128)" fill="#00abbd" opacity="0.1"/><rect width="4.736" height="0.947" transform="translate(157.301 77.469)" fill="#00abbd" opacity="0.1"/><rect width="4.736" height="13.497" transform="translate(164.405 67.997)" fill="#00abbd" opacity="0.1"/><rect width="4.736" height="0.947" transform="translate(164.405 70.128)" fill="#00abbd" opacity="0.1"/><rect width="4.736" height="0.947" transform="translate(164.405 77.469)" fill="#00abbd" opacity="0.1"/><path d="M788.9,157.382v12.295H784.16v-13.2Q786.538,156.9,788.9,157.382Z" transform="translate(-605.547 -134.121)" fill="#00abbd" opacity="0.1"/><rect width="4.736" height="0.947" transform="translate(178.613 24.189)" fill="#00abbd" opacity="0.1"/><rect width="4.736" height="0.947" transform="translate(178.613 31.53)" fill="#00abbd" opacity="0.1"/><path d="M818.9,163.567v10.656H814.16V162.43c.616.135,1.229.277,1.842.422Q817.456,163.192,818.9,163.567Z" transform="translate(-628.444 -138.662)" fill="#00abbd" opacity="0.1"/><path d="M818.9,164.94v.237H814.16v-.947H816Q817.456,164.566,818.9,164.94Z" transform="translate(-628.444 -140.036)" fill="#00abbd" opacity="0.1"/><rect width="4.736" height="0.947" transform="translate(185.716 31.53)" fill="#00abbd" opacity="0.1"/><g transform="translate(154.992 50.788)" opacity="0.1"><path d="M686.813,286.972a1.8,1.8,0,0,0-2.131.779,2.309,2.309,0,0,0,.031,2.221,3.25,3.25,0,0,0,3.161,1.79A2.257,2.257,0,0,0,690,289.468a2.368,2.368,0,0,0-3.13-2.524Z" transform="translate(-684.412 -284.379)" fill="#00abbd"/><path d="M685.055,289.958a2.309,2.309,0,0,1-.031-2.221,1.8,1.8,0,0,1,2.131-.779l.073-.026a2.337,2.337,0,0,1,1.688.038,2.337,2.337,0,0,0-1.991-.189l-.073.026a1.8,1.8,0,0,0-2.131.779,2.308,2.308,0,0,0,.031,2.221,3.45,3.45,0,0,0,1.624,1.537A3.552,3.552,0,0,1,685.055,289.958Z" transform="translate(-684.442 -284.248)" fill="#00abbd" opacity="0.1"/><path d="M691.42,290.06s.533.419,1.826,0" transform="translate(-689.76 -286.858)" fill="#00abbd" opacity="0.2"/><path d="M690.93,277.21a14.2,14.2,0,0,1,.836,3.119l.722-.076s-1.217-2.167-.912-3.043Z" transform="translate(-689.387 -277.051)" fill="#00abbd"/><path d="M690.93,277.21a14.2,14.2,0,0,1,.836,3.119l.722-.076s-1.217-2.167-.912-3.043Z" transform="translate(-689.387 -277.051)" fill="#00abbd" opacity="0.2"/><path d="M697.58,276.9s-1.437-.734-2.079-.128a4.038,4.038,0,0,0-.741,2.157A2.512,2.512,0,0,0,697.58,276.9Z" transform="translate(-692.31 -276.537)" fill="#00abbd"/><path d="M697.58,276.9s-1.437-.734-2.079-.128a4.038,4.038,0,0,0-.741,2.157A2.512,2.512,0,0,0,697.58,276.9Z" transform="translate(-692.31 -276.537)" fill="#00abbd" opacity="0.1"/><path d="M694.75,280.112a2.912,2.912,0,0,1,2.82-2.032" transform="translate(-692.302 -277.715)" fill="#00abbd"/></g><g transform="translate(185.302 74.231)" opacity="0.1"><path d="M814.813,385.972a1.8,1.8,0,0,0-2.131.779,2.308,2.308,0,0,0,.031,2.221,3.25,3.25,0,0,0,3.161,1.79A2.257,2.257,0,0,0,818,388.468a2.368,2.368,0,0,0-3.13-2.524Z" transform="translate(-812.412 -383.379)" fill="#00abbd"/><path d="M813.055,388.958a2.309,2.309,0,0,1-.031-2.221,1.8,1.8,0,0,1,2.131-.779l.073-.026a2.337,2.337,0,0,1,1.688.038,2.337,2.337,0,0,0-1.991-.189l-.073.026a1.8,1.8,0,0,0-2.131.779,2.309,2.309,0,0,0,.031,2.221,3.451,3.451,0,0,0,1.624,1.537A3.552,3.552,0,0,1,813.055,388.958Z" transform="translate(-812.442 -383.248)" fill="#00abbd" opacity="0.1"/><path d="M819.42,389.06s.533.419,1.826,0" transform="translate(-817.761 -385.858)" fill="#00abbd" opacity="0.2"/><path d="M818.93,376.21a14.2,14.2,0,0,1,.836,3.119l.722-.076s-1.217-2.167-.912-3.043Z" transform="translate(-817.387 -376.051)" fill="#00abbd"/><path d="M818.93,376.21a14.2,14.2,0,0,1,.836,3.119l.722-.076s-1.217-2.167-.912-3.043Z" transform="translate(-817.387 -376.051)" fill="#00abbd" opacity="0.2"/><path d="M825.58,375.9s-1.437-.734-2.079-.128a4.038,4.038,0,0,0-.741,2.157A2.512,2.512,0,0,0,825.58,375.9Z" transform="translate(-820.31 -375.537)" fill="#00abbd"/><path d="M825.58,375.9s-1.437-.734-2.079-.128a4.038,4.038,0,0,0-.741,2.157A2.512,2.512,0,0,0,825.58,375.9Z" transform="translate(-820.31 -375.537)" fill="#00abbd" opacity="0.1"/><path d="M822.75,379.112a2.912,2.912,0,0,1,2.82-2.032" transform="translate(-820.302 -376.715)" fill="#00abbd"/></g><ellipse cx="12.787" cy="4.547" rx="12.787" ry="4.547" transform="translate(222.834 140.085)" opacity="0.1"/><path d="M1007.944,418.19s7.3-24.767-1.369-43a39.13,39.13,0,0,1-3.164-24.542,65.8,65.8,0,0,1,3.474-11.52" transform="translate(-772.313 -273.52)" fill="none" stroke="#535461" stroke-miterlimit="10" stroke-width="2"/><path d="M997.72,272.756c0,3.036,5.5,11.84,5.5,11.84s5.5-8.8,5.5-11.84a5.5,5.5,0,0,0-10.992,0Z" transform="translate(-768.537 -218.669)" fill="#00abbd"/><path d="M956.475,334.115c1.658,2.548,11.047,6.95,11.047,6.95s-.171-10.376-1.821-12.924a5.5,5.5,0,1,0-9.235,5.974Z" transform="translate(-736.378 -263.215)" fill="#00abbd"/><path d="M951.257,449.274c2.711,1.366,13.045.421,13.045.421s-5.385-8.87-8.1-10.237a5.5,5.5,0,0,0-4.949,9.815Z" transform="translate(-730.77 -349.641)" fill="#00abbd"/><path d="M975.82,542.372c2.441,1.8,12.787,2.621,12.787,2.621s-3.808-9.654-6.249-11.459a5.5,5.5,0,1,0-6.538,8.837Z" transform="translate(-750.123 -421.068)" fill="#00abbd"/><path d="M1015.054,362.879c-2.176,2.115-12.313,4.305-12.313,4.305s2.484-10.076,4.66-12.19a5.5,5.5,0,0,1,7.658,7.885Z" transform="translate(-772.368 -284.441)" fill="#00abbd"/><path d="M1036.955,467.124c-2.711,1.366-13.045.422-13.045.422s5.385-8.87,8.1-10.237a5.5,5.5,0,0,1,4.949,9.815Z" transform="translate(-788.525 -363.264)" fill="#00abbd"/><path d="M1047.127,576.294c-2.441,1.8-12.787,2.621-12.787,2.621s3.808-9.654,6.249-11.459a5.5,5.5,0,1,1,6.536,8.838Z" transform="translate(-796.486 -446.957)" fill="#00abbd"/><ellipse cx="12.787" cy="4.547" rx="12.787" ry="4.547" transform="translate(191.009 127.014)" opacity="0.1"/><path d="M880.37,500.99s3.417-11.6-.642-20.144a18.329,18.329,0,0,1-1.482-11.5,30.831,30.831,0,0,1,1.629-5.4" transform="translate(-677.093 -368.783)" fill="none" stroke="#535461" stroke-miterlimit="10" stroke-width="2"/><path d="M875.552,432.85c0,1.421,2.574,5.546,2.574,5.546s2.574-4.125,2.574-5.546a2.575,2.575,0,1,0-5.15,0Z" transform="translate(-675.297 -343.082)" fill="#00abbd"/><path d="M856.257,461.6c.772,1.184,5.177,3.256,5.177,3.256s-.081-4.861-.853-6.055a2.575,2.575,0,0,0-4.324,2.8Z" transform="translate(-660.256 -363.954)" fill="#00abbd"/><path d="M853.82,515.548c1.269.639,6.112.2,6.112.2s-2.522-4.156-3.789-4.8a2.575,2.575,0,0,0-2.318,4.6Z" transform="translate(-657.635 -404.443)" fill="#00abbd"/><path d="M865.291,559.173c1.144.845,5.991,1.229,5.991,1.229s-1.785-4.523-2.927-5.368a2.575,2.575,0,1,0-3.062,4.142Z" transform="translate(-666.672 -437.913)" fill="#00abbd"/><path d="M883.673,475.079c-1.021.99-5.773,2.018-5.773,2.018s1.165-4.722,2.183-5.712a2.575,2.575,0,0,1,3.588,3.694Z" transform="translate(-677.09 -373.902)" fill="#00abbd"/><path d="M893.972,523.918c-1.269.639-6.112.2-6.112.2s2.522-4.156,3.789-4.8a2.575,2.575,0,0,1,2.318,4.6Z" transform="translate(-684.692 -410.831)" fill="#00abbd"/><path d="M898.691,575.03c-1.144.845-5.991,1.229-5.991,1.229s1.785-4.523,2.927-5.368a2.575,2.575,0,1,1,3.064,4.139Z" transform="translate(-688.386 -450.015)" fill="#00abbd"/><path d="M335.367,267.693,262.046,228.8H246.67l3.978-33.114a5.489,5.489,0,0,0-4.9-6.117l-.412.017h-.04l-55.934.85a6.036,6.036,0,0,0-6.3,4.648l-2.6,19.029-.377-.575-.182-.277c1.376-.9-1.338-6.216-3.637-10.182l-.208-.36c1.459-.609,3.078-1.184,3.078-1.184l-3.587-2.24a97.507,97.507,0,0,0-6.815-8.655c2.368-14.828-2.633-31.968-2.692-32.2l-.133.036a7.08,7.08,0,0,0,1.056-3.741h0a7.1,7.1,0,0,0-2.4-5.323c-.14-1.269-.341-2.576-.63-3.952h0c-.052-.237-.107-.5-.166-.751-.27-1.184-.542-2.368-.9-3.528a17.758,17.758,0,0,0-.921-2.418,14.746,14.746,0,0,0-9.922-7.765c-2.167-.511-4.388.282-6.41-.1-1.018-.187-1.93-1.165-2.922-1.561a18.367,18.367,0,0,0-3.95-.947,13.391,13.391,0,0,0-5.03-.192c-2.723.592-4.8,2.8-6.327,5.129s-2.714,4.911-4.6,6.962c-1.262,1.373-2.816,2.477-3.94,3.964-1.658,2.188-2.233,4.973-2.766,7.677a51.246,51.246,0,0,0-1.3,10.08c0,.784.012,1.57.081,2.356.173,2.018.632,4.007.741,6.026,0,.218.017.436.021.654-.024,3.7-1.115,7.341-2.2,10.893-.346,1.13-.7,2.269-1.106,3.381a15.356,15.356,0,0,0-5.851,1.478c-5.806,3.107-10.275,10.035-10.275,10.035l-8.494,7.814a12.607,12.607,0,0,1,4.918,4.248,1.893,1.893,0,0,0,.192.268l-.123.284-4.987,11.518a12.331,12.331,0,0,0,7.814,1.788,5.817,5.817,0,0,1,2.273.166c0,.142-.014.287-.019.438-.287,6.59-.438,21.03,2.972,30.784l-7.705,9L77.63,267.7l-.67,11.84H335.815Zm-222-44.151a9.429,9.429,0,0,1,1.92.611v8.231a52.76,52.76,0,0,0-1.762-8.364C113.481,223.86,113.436,223.7,113.372,223.542Zm44.444,15.839V239.3a4.2,4.2,0,0,1,.116-.852,2.411,2.411,0,0,1,.618-1.151c.571-.571,1.16-1.184,1.75-1.849a8.617,8.617,0,0,0,1.549,2.56c.758.845,2.451,1.605,4.828,2.292a87.126,87.126,0,0,0-8.861-.914Zm19.325-1.137-7.739,2.29c-3.659-.819-6.261-1.757-7.225-2.842a8.288,8.288,0,0,1-1.544-2.643A23.969,23.969,0,0,0,166.7,221.66c.017-.154.028-.313.043-.474a15.417,15.417,0,0,0,2.368-1.658l.14.327a41.654,41.654,0,0,0,8.679,12.688Zm-11.47-79.429c.609,2.2,4.736,17.736,2.666,31.4a25.6,25.6,0,0,0-3.753-3.445,7.289,7.289,0,0,0-.864-.514c-.258-2.505-.377-5.1-.4-7.677.024-3.187.213-6.349.474-9.356.282-3.187.613-6.228.819-9.218A7.155,7.155,0,0,0,165.671,158.816Z" transform="translate(-65.811 -112.403)" fill="url(#a)"/><path d="M5.816,0h2.02V13.971H5.816A5.816,5.816,0,0,1,0,8.155V5.83A5.816,5.816,0,0,1,5.816,0Z" transform="translate(101.9 50.24) rotate(180)" fill="#dfe6f5"/><rect width="3.429" height="13.959" rx="1.714" transform="translate(95.778 50.24) rotate(180)" fill="#535461"/><g transform="translate(92.35 36.269)" opacity="0.1"><path d="M5.816,0h2.02V13.971H5.816A5.816,5.816,0,0,1,0,8.155V5.83A5.816,5.816,0,0,1,5.816,0Z" transform="translate(9.55 13.971) rotate(180)"/><rect width="3.429" height="13.959" rx="1.714" transform="translate(3.429 13.971) rotate(180)"/></g><rect width="35.304" height="36.621" transform="translate(61.741 43.664)" fill="#865a61"/><rect width="35.304" height="36.621" transform="translate(61.741 38.62)" opacity="0.1"/><path d="M287.028,294.131,284.9,309.618l-1,7.279-.369,2.673-3.095,6.034-5.683,11.073-10.964,1.317L244.5,310.8s-10.1-19.3,5.255-17.544c8.608.985,10.656-6.72,10.81-13.68a51.739,51.739,0,0,0-.947-10.443l15.349,7.457q-.535,2.493-.805,4.582c-.748,5.7-.128,9.249,1.17,11.4C278.782,298.3,287.028,294.131,287.028,294.131Z" transform="translate(-191.188 -220.096)" fill="#fdc2cc"/><path d="M334.194,276.6q-.535,2.493-.805,4.582a17.857,17.857,0,0,1-4.9.682,17.674,17.674,0,0,1-8.7-2.276,51.748,51.748,0,0,0-.947-10.443Z" transform="translate(-250.414 -220.111)" opacity="0.1"/><circle cx="17.762" cy="17.762" r="17.762" transform="translate(60.316 25.793)" fill="#fdc2cc"/><path d="M224.264,526.557l-73.024,5.707,11.84-13.815c12.7-7.762,12.6-18.432,10.907-25.051a25.754,25.754,0,0,0-2.356-6.088l25.24.118h.213l2.074,4.715.095.213,1.544,3.507,5.262-9.429,1.83-2.951,1.023-1.658s15.131-3.509,15.349,5.482a24.04,24.04,0,0,1-.121,3.093c-.753,7.236-4.712,12.048-7.992,15.328C212.421,509.453,224.264,526.557,224.264,526.557Z" transform="translate(-122.501 -381.911)" fill="#ec7580"/><path d="M245.025,508.691c-.535,2.131.815,5.794,2.6,9.391a132.385,132.385,0,0,1-18,.443l-9.659,2.633-27.189,7.895a20.722,20.722,0,0,1-2.915-5.626l2.695-3.145c8.48-5.181,11.25-11.658,11.655-17.36a24.391,24.391,0,0,0-.748-7.694,25.752,25.752,0,0,0-2.354-6.083l25.24.118h.213l2.074,4.715.095.213,1.544,3.507,5.262-9.429,1.826-2.951,1.023-1.658s15.131-3.514,15.352,5.484a24.037,24.037,0,0,1-.121,3.093c-.753,7.236-4.712,12.048-7.992,15.328A2.368,2.368,0,0,0,245.025,508.691Z" transform="translate(-151.984 -383.311)" fill="#ec7580"/><path d="M511.373,510.915c-.438,5.262-13.156-1.755-13.156-1.755s-3.947-1.317-17.324-9.867A40.843,40.843,0,0,1,465.5,481.322a25.811,25.811,0,0,1-1.281-3.519l9.216-6.8,2.688,4.108,8.934,13.651,13.156,8.761S511.812,505.653,511.373,510.915Z" transform="translate(-361.368 -374.164)" fill="#fdc2cc"/><path d="M313.066,527.738H60.23l25.311-7.49,63.277-18.726,40.35-11.942h51.972Z" transform="translate(-45.964 -373.662)" fill="#cbcdda"/><path d="M58.108,650.72l-.658,11.622H311.382l-.438-11.622Z" transform="translate(-43.843 -496.645)" fill="#cbcdda"/><path d="M58.108,650.72l-.658,11.622H311.382l-.438-11.622Z" transform="translate(-43.843 -496.645)" opacity="0.1"/><path d="M369.062,625.611,422.5,620.12l.658,10.526-24.428,2.422a15.952,15.952,0,0,1-5.025-.391L369.017,626.3a.351.351,0,0,1,.045-.687Z" transform="translate(-288.509 -487.972)" fill="#535461"/><path d="M369.062,625.611,422.5,620.12l.658,10.526-24.428,2.422a15.952,15.952,0,0,1-5.025-.391L369.017,626.3a.351.351,0,0,1,.045-.687Z" transform="translate(-288.509 -487.972)" opacity="0.2"/><path d="M369.041,624.681l53.883-5.491.658,10.526-24.43,1.98a15.957,15.957,0,0,1-5.022-.384L369,625.37a.35.35,0,0,1,.045-.689Z" transform="translate(-288.489 -487.263)" fill="#535461"/><path d="M423.476,634.643l28.491-2.9.348,5.565L439.4,638.354a8.437,8.437,0,0,1-2.657-.206l-13.289-3.142a.185.185,0,0,1,.024-.362Z" transform="translate(-330.148 -496.841)" fill="#fff" opacity="0.3"/><path d="M476.147,475.113a.9.9,0,0,1-.933.277c-4.385-.658-9.429,5.7-9.429,5.7s-.09.085-.253.237a25.8,25.8,0,0,1-1.281-3.519l9.209-6.81Z" transform="translate(-361.391 -374.164)" opacity="0.1"/><path d="M400.9,492.207c-2.063,1.148-4.9,1.973-7.116-.237-3.824-3.824-10.528-3.315-10.945-3.292.684-.095,1.291-1.5,1.807-3.386l1.023-1.658s15.131-3.5,15.352,5.494A24.032,24.032,0,0,1,400.9,492.207Z" transform="translate(-299.259 -383.293)" opacity="0.1"/><path d="M392.246,440.11l-1.373,9.945-3.095,6.034a18.869,18.869,0,0,0-5.877-.552c2.181-.3,3.59-13.928,3.59-13.928l.126-.028Z" transform="translate(-298.542 -350.588)" opacity="0.1"/><path d="M413.081,441.043c-4.385-.658-9.429,5.7-9.429,5.7s-5.92,5.7-9.867,1.755c-3.824-3.824-10.528-3.315-10.945-3.292,2.181-.3,3.59-13.931,3.59-13.931l.126-.028L407.6,426.57s1.255,1.923,2.671,4.371C412.826,435.353,415.9,441.467,413.081,441.043Z" transform="translate(-299.259 -340.254)" fill="#ec7580"/><path d="M416.945,432.272c.22.438-3.509,2.631-5.262,1.973s-6.14,2.842-6.578,3.289-10.305-.658-10.305-.658a46.388,46.388,0,0,0,.883-5.626l21.044-4.679s1.255,1.923,2.671,4.371C418.089,431.479,416.839,432.057,416.945,432.272Z" transform="translate(-308.387 -340.254)" opacity="0.1"/><path d="M395.755,369.7l-2.131,15.487-1,7.279c-2.941-.22-6.507-.616-6.507-.616s3.727-15.569-2.413-23.68c0,0,.13,0,.365-.024C387.51,373.876,395.755,369.7,395.755,369.7Z" transform="translate(-299.915 -295.668)" opacity="0.1"/><path d="M384.61,367.857s11.184-.876,15.569,2.193,10.746,12.28,10.746,12.28l3.509,2.193s-5.482,1.973-5.262,2.413-3.509,2.631-5.262,1.973-6.14,2.842-6.578,3.289-10.305-.658-10.305-.658S390.75,375.97,384.61,367.857Z" transform="translate(-300.61 -295.356)" fill="#ec7580"/><path d="M498.62,346.124c-2.538-.062-62.219-1.61-67.916-7.966-6.067-6.768-.178-26.268,4.781-40.348,5.4-15.328-1.037-37.338-1.1-37.589l.424-.111c.066.253,6.533,22.392,1.092,37.845-7.712,21.906-9.306,34.961-4.869,39.91,5.574,6.216,66.981,7.814,67.6,7.814Z" transform="translate(-333.82 -213.212)" fill="#dfe6f5"/><path d="M508.362,389.908l55.207-.838a5.385,5.385,0,0,1,4.8,6l-6.263,52.143a5.385,5.385,0,0,1-5.023,4.736l-56.426,3.493a5.385,5.385,0,0,1-5.65-6.157l7.492-54.8A5.385,5.385,0,0,1,508.362,389.908Z" transform="translate(-384.821 -311.634)" fill="#535461"/><path d="M508.362,389.908l55.207-.838a5.385,5.385,0,0,1,4.8,6l-6.263,52.143a5.385,5.385,0,0,1-5.023,4.736l-56.426,3.493a5.385,5.385,0,0,1-5.65-6.157l7.492-54.8A5.385,5.385,0,0,1,508.362,389.908Z" transform="translate(-384.821 -311.634)" opacity="0.2"/><path d="M510.219,389.908l55.207-.838a5.385,5.385,0,0,1,4.809,6l-6.263,52.143a5.385,5.385,0,0,1-5.023,4.736l-56.433,3.493a5.385,5.385,0,0,1-5.65-6.157l7.492-54.8A5.385,5.385,0,0,1,510.219,389.908Z" transform="translate(-386.241 -311.634)" fill="#535461"/><circle cx="2.631" cy="2.631" r="2.631" transform="translate(148.359 105.283)" fill="#fff" opacity="0.3"/><path d="M247.63,582.342a132.385,132.385,0,0,1-18,.443l-9.659,2.631-27.189,7.895a20.723,20.723,0,0,1-2.915-5.626l2.695-3.145c8.48-5.181,11.25-11.658,11.655-17.36.725,5.671.845,10.779.845,10.779l10.964-1.1,15.929-3.789a14.388,14.388,0,0,1,3.348-.391c2.074,0,5.766.045,9.709.258C244.49,575.075,245.839,578.74,247.63,582.342Z" transform="translate(-151.984 -447.568)" opacity="0.1"/><path d="M265.115,606.071c-5.044,5.92-30.919,4.606-30.919,4.606l-9.65,2.631L197.356,621.2c-.118-.154-.237-.31-.346-.474L260.289,602C264.329,602.815,266.808,604.084,265.115,606.071Z" transform="translate(-157.433 -474.143)" opacity="0.1"/><path d="M246.772,530.715c-5.044,5.92-30.919,4.606-30.919,4.606l-9.649,2.628-27.191,7.895c-6.394-8.288-6.251-28.039-5.9-36.029.095-2.145.2-3.443.2-3.443s9.209-5.7,13.377,0a14.636,14.636,0,0,1,1.894,4.085c2.418,7.6,2.714,20.035,2.714,20.035l10.964-1.1,15.929-3.789a14.389,14.389,0,0,1,3.351-.391C228.141,525.235,251.1,525.633,246.772,530.715Z" transform="translate(-139.09 -399.225)" fill="#fdc2cc"/><path d="M189.018,510.459a8.685,8.685,0,0,0-5.4.739,17.151,17.151,0,0,1-8.113,1.534,2.726,2.726,0,0,0-1.956-2.917c.095-2.145.2-3.443.2-3.443s9.209-5.7,13.377,0A14.758,14.758,0,0,1,189.018,510.459Z" transform="translate(-139.528 -399.225)" opacity="0.1"/><path d="M264.988,514.041h0a15.446,15.446,0,0,1-5.92-.44c-3.947-.876-5.482.876-7.675,1.755s-7.883,1.316-10.085.44c-.519-.208-1.04-.474-1.591-.71A25.752,25.752,0,0,0,237.37,509l25.24.118,2.287,4.715Z" transform="translate(-188.236 -403.165)" opacity="0.1"/><path d="M184.363,465.9a15.2,15.2,0,0,1-5.92-.438c-3.947-.876-5.482.876-7.675,1.755s-7.895,1.317-10.088.438-4.385-2.631-9-.658a17.161,17.161,0,0,1-8.113,1.534s.438-3.509-4.165-3.078a12.169,12.169,0,0,1-7.675-1.755l4.892-11.3,1.468-3.393L174.78,446.5h.175Z" transform="translate(-107.611 -355.465)" fill="#ec7580"/><path d="M194.264,455.38c-2.413-3.947-15.131-.438-15.131-.438s-6.14,1.755-7.457-1.534-10.732-1.106-10.732-1.106-6.832,2.562-8.484.1l1.468-3.393L190.6,446.5Z" transform="translate(-123.432 -355.465)" opacity="0.1"/><path d="M167.98,371.806s-12.06-2.413-17.76.658-10.085,9.867-10.085,9.867l-8.335,7.675a12.357,12.357,0,0,1,4.824,4.165c1.534,2.631,8.553,0,8.553,0s9.429-2.193,10.746,1.1,7.457,1.534,7.457,1.534,12.718-3.509,15.131.438Z" transform="translate(-107.665 -297.77)" fill="#ec7580"/><path d="M238.561,136.275a13.094,13.094,0,0,0-4.935-.189c-2.671.58-4.708,2.747-6.206,5.03s-2.664,4.816-4.513,6.827c-1.238,1.347-2.761,2.43-3.865,3.888-1.624,2.148-2.19,4.887-2.714,7.53-.767,3.879-1.537,7.814-1.2,11.762.17,1.98.62,3.928.727,5.92.215,4-.966,7.926-2.131,11.757a26.144,26.144,0,0,1-3.237,7.606,32.81,32.81,0,0,1-3.708,4.054,2.276,2.276,0,0,0-.68,1c-.279,1.132,1.087,1.894,2.131,2.406,3.194,1.594,5.29,4.7,7.774,7.265s6.038,4.762,9.455,3.734a10.3,10.3,0,0,1,3.031-.867,6.753,6.753,0,0,1,2.067.538,15.517,15.517,0,0,0,5.226.876,2.02,2.02,0,0,0,1.134-.237,2.178,2.178,0,0,0,.682-1.712,85.7,85.7,0,0,0,.44-11.97c-.509-9.036-8.859-19.488-5.683-27.968,1.38-3.7,3.9-6.881,5.3-10.573,1.473-3.891,6.666-7.049,7.7-11.082a1.818,1.818,0,0,1,.673-1.184,1.714,1.714,0,0,1,1.788.322c2.988,2.06,3.962,5.934,5.049,9.4a58.056,58.056,0,0,0,3.247,8.132c.71,1.421,2.235,3.067,3.571,2.2-.673,5.986-4.556,11.215-5.435,17.173-.857,5.806,1.22,11.74.414,17.551a18,18,0,0,1-4.843,9.945,24.077,24.077,0,0,0,8.958.081c3-.542,6.221-1.965,7.305-4.821,1.184-3.142-.646-6.514-1.577-9.744-2.233-7.765-2.06-16.948-1.352-25,.729-8.276,1.823-15.522-.031-23.621a28.225,28.225,0,0,0-1.788-5.832,14.467,14.467,0,0,0-9.735-7.618c-2.131-.5-4.3.277-6.289-.092-1-.187-1.894-1.144-2.865-1.532A18.027,18.027,0,0,0,238.561,136.275Z" transform="translate(-164.343 -118.427)" opacity="0.1"/><path d="M266.057,208.8c-1.085,2.856-4.3,4.279-7.308,4.821a24.127,24.127,0,0,1-8.958-.08,18.011,18.011,0,0,0,4.842-9.945c.807-5.813-1.269-11.748-.414-17.551.879-5.96,4.762-11.189,5.434-17.175-1.336.862-2.872-.777-3.573-2.2a58.18,58.18,0,0,1-3.247-8.132c-1.087-3.462-2.06-7.341-5.049-9.4a1.708,1.708,0,0,0-1.788-.32,1.825,1.825,0,0,0-.673,1.184c-1.028,4.026-6.223,7.189-7.694,11.08-1.4,3.692-3.924,6.867-5.3,10.573-3.164,8.477,5.186,18.93,5.683,27.966a86.422,86.422,0,0,1-.44,11.97,2.19,2.19,0,0,1-.684,1.714,2.015,2.015,0,0,1-1.132.237,15.466,15.466,0,0,1-5.212-.871,6.716,6.716,0,0,0-2.067-.538,10.442,10.442,0,0,0-3.031.867c-3.417,1.028-6.974-1.172-9.455-3.734s-4.584-5.667-7.776-7.251c-1.044-.521-2.411-1.274-2.131-2.408a2.293,2.293,0,0,1,.68-.995,33,33,0,0,0,3.711-4.054,26.207,26.207,0,0,0,3.237-7.606c1.17-3.831,2.351-7.757,2.131-11.757-.1-1.982-.554-3.931-.727-5.92-.341-3.94.431-7.881,1.2-11.759.521-2.643,1.087-5.382,2.714-7.53,1.106-1.459,2.626-2.541,3.867-3.888,1.852-2.01,3.012-4.544,4.513-6.829s3.538-4.449,6.209-5.03a13.143,13.143,0,0,1,4.935.189,18.443,18.443,0,0,1,3.874.947c.973.388,1.868,1.347,2.865,1.53,1.984.372,4.165-.407,6.289.095a14.458,14.458,0,0,1,9.735,7.615,17.429,17.429,0,0,1,.9,2.368c.35,1.137.618,2.3.883,3.46.057.237.111.493.163.736h0c1.622,7.71.575,13.325-.133,21.345s-.881,18.766,1.35,26.521C265.411,202.284,267.251,205.658,266.057,208.8Z" transform="translate(-164.328 -117.017)" fill="#865a61"/><path d="M352.66,508.53s1.755,2.842,1.755,4.824c0,0,1.317-4.824,2.413-4.824" transform="translate(-276.226 -402.806)" opacity="0.05"/><path d="M267.242,477.389v14.473a10.478,10.478,0,0,1-2.259,6.514,10.816,10.816,0,0,1-.8.9,10.526,10.526,0,0,1-14.918,0,10.812,10.812,0,0,1-.8-.9,10.478,10.478,0,0,1-2.259-6.514V477.389a10.469,10.469,0,0,1,2.432-6.73,9.988,9.988,0,0,1,.9-.947,10.516,10.516,0,0,1,14.385,0c.085.076.168.159.251.237.237.237.443.474.651.71a10.468,10.468,0,0,1,2.42,6.73Z" transform="translate(-194.975 -371.01)" fill="#dfe6f5"/><path d="M267.242,477.389v14.473a10.478,10.478,0,0,1-2.259,6.514,10.816,10.816,0,0,1-.8.9,10.526,10.526,0,0,1-14.918,0,10.812,10.812,0,0,1-.8-.9,10.478,10.478,0,0,1-2.259-6.514V477.389a10.469,10.469,0,0,1,2.432-6.73,9.988,9.988,0,0,1,.9-.947,10.516,10.516,0,0,1,14.385,0c.085.076.168.159.251.237.237.237.443.474.651.71a10.468,10.468,0,0,1,2.42,6.73Z" transform="translate(-194.975 -371.01)" opacity="0.1"/><path d="M269.056,477.389v14.473a10.479,10.479,0,0,1-2.259,6.514,10.816,10.816,0,0,1-.8.9,10.526,10.526,0,0,1-14.918,0,10.813,10.813,0,0,1-.8-.9A10.478,10.478,0,0,1,248,491.862V477.389a10.469,10.469,0,0,1,2.432-6.73,9.986,9.986,0,0,1,.9-.947,10.516,10.516,0,0,1,14.385,0c.085.076.168.159.251.237.237.237.443.474.651.71A10.469,10.469,0,0,1,269.056,477.389Z" transform="translate(-196.349 -371.01)" fill="#dfe6f5"/><circle cx="0.658" cy="0.658" r="0.658" transform="translate(56.915 98.485)" opacity="0.1"/><circle cx="0.658" cy="0.658" r="0.658" transform="translate(56.915 100.677)" opacity="0.1"/><circle cx="0.658" cy="0.658" r="0.658" transform="translate(56.915 102.87)" opacity="0.1"/><circle cx="0.658" cy="0.658" r="0.658" transform="translate(56.915 105.063)" opacity="0.1"/><circle cx="0.658" cy="0.658" r="0.658" transform="translate(56.915 107.256)" opacity="0.1"/><circle cx="0.658" cy="0.658" r="0.658" transform="translate(56.915 109.448)" opacity="0.1"/><circle cx="0.658" cy="0.658" r="0.658" transform="translate(56.915 111.641)" opacity="0.1"/><circle cx="0.658" cy="0.658" r="0.658" transform="translate(56.915 113.836)" opacity="0.1"/><circle cx="0.658" cy="0.658" r="0.658" transform="translate(56.915 116.029)" opacity="0.1"/><circle cx="0.658" cy="0.658" r="0.658" transform="translate(56.915 118.222)" opacity="0.1"/><circle cx="0.658" cy="0.658" r="0.658" transform="translate(56.915 120.414)" opacity="0.1"/><circle cx="0.658" cy="0.658" r="0.658" transform="translate(56.915 122.607)" opacity="0.1"/><circle cx="0.658" cy="0.658" r="0.658" transform="translate(56.915 124.8)" opacity="0.1"/><circle cx="0.658" cy="0.658" r="0.658" transform="translate(56.915 126.993)" opacity="0.1"/><path d="M259.357,479.321a.658.658,0,0,1-1.077.507,10,10,0,0,1,.9-.947A.644.644,0,0,1,259.357,479.321Z" transform="translate(-204.195 -380.178)" opacity="0.1"/><circle cx="0.658" cy="0.658" r="0.658" transform="translate(53.846 100.677)" opacity="0.1"/><circle cx="0.658" cy="0.658" r="0.658" transform="translate(53.846 102.87)" opacity="0.1"/><circle cx="0.658" cy="0.658" r="0.658" transform="translate(53.846 105.063)" opacity="0.1"/><circle cx="0.658" cy="0.658" r="0.658" transform="translate(53.846 107.256)" opacity="0.1"/><circle cx="0.658" cy="0.658" r="0.658" transform="translate(53.846 109.448)" opacity="0.1"/><circle cx="0.658" cy="0.658" r="0.658" transform="translate(53.846 111.641)" opacity="0.1"/><circle cx="0.658" cy="0.658" r="0.658" transform="translate(53.846 113.836)" opacity="0.1"/><circle cx="0.658" cy="0.658" r="0.658" transform="translate(53.846 116.029)" opacity="0.1"/><circle cx="0.658" cy="0.658" r="0.658" transform="translate(53.846 118.222)" opacity="0.1"/><circle cx="0.658" cy="0.658" r="0.658" transform="translate(53.846 120.414)" opacity="0.1"/><circle cx="0.658" cy="0.658" r="0.658" transform="translate(53.846 122.607)" opacity="0.1"/><circle cx="0.658" cy="0.658" r="0.658" transform="translate(53.846 124.8)" opacity="0.1"/><path d="M258.8,599a.656.656,0,0,1-.448.623,10.811,10.811,0,0,1-.8-.9.656.656,0,0,1,1.25.282Z" transform="translate(-203.637 -471.351)" opacity="0.1"/><circle cx="0.658" cy="0.658" r="0.658" transform="translate(59.987 98.485)" opacity="0.1"/><circle cx="0.658" cy="0.658" r="0.658" transform="translate(59.987 100.677)" opacity="0.1"/><circle cx="0.658" cy="0.658" r="0.658" transform="translate(59.987 102.87)" opacity="0.1"/><circle cx="0.658" cy="0.658" r="0.658" transform="translate(59.987 105.063)" opacity="0.1"/><circle cx="0.658" cy="0.658" r="0.658" transform="translate(59.987 107.256)" opacity="0.1"/><circle cx="0.658" cy="0.658" r="0.658" transform="translate(59.987 109.448)" opacity="0.1"/><circle cx="0.658" cy="0.658" r="0.658" transform="translate(59.987 111.641)" opacity="0.1"/><circle cx="0.658" cy="0.658" r="0.658" transform="translate(59.987 113.836)" opacity="0.1"/><circle cx="0.658" cy="0.658" r="0.658" transform="translate(59.987 116.029)" opacity="0.1"/><circle cx="0.658" cy="0.658" r="0.658" transform="translate(59.987 118.222)" opacity="0.1"/><circle cx="0.658" cy="0.658" r="0.658" transform="translate(59.987 120.414)" opacity="0.1"/><circle cx="0.658" cy="0.658" r="0.658" transform="translate(59.987 122.607)" opacity="0.1"/><circle cx="0.658" cy="0.658" r="0.658" transform="translate(59.987 124.8)" opacity="0.1"/><circle cx="0.658" cy="0.658" r="0.658" transform="translate(59.987 126.993)" opacity="0.1"/><circle cx="0.658" cy="0.658" r="0.658" transform="translate(63.055 98.485)" opacity="0.1"/><circle cx="0.658" cy="0.658" r="0.658" transform="translate(63.055 100.677)" opacity="0.1"/><circle cx="0.658" cy="0.658" r="0.658" transform="translate(63.055 102.87)" opacity="0.1"/><circle cx="0.658" cy="0.658" r="0.658" transform="translate(63.055 105.063)" opacity="0.1"/><circle cx="0.658" cy="0.658" r="0.658" transform="translate(63.055 107.256)" opacity="0.1"/><circle cx="0.658" cy="0.658" r="0.658" transform="translate(63.055 109.448)" opacity="0.1"/><circle cx="0.658" cy="0.658" r="0.658" transform="translate(63.055 111.641)" opacity="0.1"/><circle cx="0.658" cy="0.658" r="0.658" transform="translate(63.055 113.836)" opacity="0.1"/><circle cx="0.658" cy="0.658" r="0.658" transform="translate(63.055 116.029)" opacity="0.1"/><circle cx="0.658" cy="0.658" r="0.658" transform="translate(63.055 118.222)" opacity="0.1"/><circle cx="0.658" cy="0.658" r="0.658" transform="translate(63.055 120.414)" opacity="0.1"/><circle cx="0.658" cy="0.658" r="0.658" transform="translate(63.055 122.607)" opacity="0.1"/><circle cx="0.658" cy="0.658" r="0.658" transform="translate(63.055 124.8)" opacity="0.1"/><circle cx="0.658" cy="0.658" r="0.658" transform="translate(63.055 126.993)" opacity="0.1"/><circle cx="0.658" cy="0.658" r="0.658" transform="translate(66.127 98.485)" opacity="0.1"/><circle cx="0.658" cy="0.658" r="0.658" transform="translate(66.127 100.677)" opacity="0.1"/><circle cx="0.658" cy="0.658" r="0.658" transform="translate(66.127 102.87)" opacity="0.1"/><circle cx="0.658" cy="0.658" r="0.658" transform="translate(66.127 105.063)" opacity="0.1"/><circle cx="0.658" cy="0.658" r="0.658" transform="translate(66.127 107.256)" opacity="0.1"/><circle cx="0.658" cy="0.658" r="0.658" transform="translate(66.127 109.448)" opacity="0.1"/><circle cx="0.658" cy="0.658" r="0.658" transform="translate(66.127 111.641)" opacity="0.1"/><circle cx="0.658" cy="0.658" r="0.658" transform="translate(66.127 113.836)" opacity="0.1"/><circle cx="0.658" cy="0.658" r="0.658" transform="translate(66.127 116.029)" opacity="0.1"/><circle cx="0.658" cy="0.658" r="0.658" transform="translate(66.127 118.222)" opacity="0.1"/><circle cx="0.658" cy="0.658" r="0.658" transform="translate(66.127 120.414)" opacity="0.1"/><circle cx="0.658" cy="0.658" r="0.658" transform="translate(66.127 122.607)" opacity="0.1"/><circle cx="0.658" cy="0.658" r="0.658" transform="translate(66.127 124.8)" opacity="0.1"/><circle cx="0.658" cy="0.658" r="0.658" transform="translate(66.127 126.993)" opacity="0.1"/><path d="M323.177,479.812a.658.658,0,0,1-1.077-.507.644.644,0,0,1,.175-.445c.085.076.168.159.251.237C322.754,479.329,322.969,479.566,323.177,479.812Z" transform="translate(-252.902 -380.162)" opacity="0.1"/><circle cx="0.658" cy="0.658" r="0.658" transform="translate(69.196 100.677)" opacity="0.1"/><circle cx="0.658" cy="0.658" r="0.658" transform="translate(69.196 102.87)" opacity="0.1"/><circle cx="0.658" cy="0.658" r="0.658" transform="translate(69.196 105.063)" opacity="0.1"/><circle cx="0.658" cy="0.658" r="0.658" transform="translate(69.196 107.256)" opacity="0.1"/><circle cx="0.658" cy="0.658" r="0.658" transform="translate(69.196 109.448)" opacity="0.1"/><circle cx="0.658" cy="0.658" r="0.658" transform="translate(69.196 111.641)" opacity="0.1"/><circle cx="0.658" cy="0.658" r="0.658" transform="translate(69.196 113.836)" opacity="0.1"/><circle cx="0.658" cy="0.658" r="0.658" transform="translate(69.196 116.029)" opacity="0.1"/><circle cx="0.658" cy="0.658" r="0.658" transform="translate(69.196 118.222)" opacity="0.1"/><circle cx="0.658" cy="0.658" r="0.658" transform="translate(69.196 120.414)" opacity="0.1"/><circle cx="0.658" cy="0.658" r="0.658" transform="translate(69.196 122.607)" opacity="0.1"/><circle cx="0.658" cy="0.658" r="0.658" transform="translate(69.196 124.8)" opacity="0.1"/><path d="M323.337,598.709a10.82,10.82,0,0,1-.8.9.658.658,0,1,1,.8-.9Z" transform="translate(-252.889 -471.342)" opacity="0.1"/><rect width="3.069" height="29.384" rx="1.534" transform="translate(60.207 119.756)" fill="#54576b"/><rect width="21.051" height="3.947" rx="1.974" transform="translate(51.216 145.193)" fill="#54576b"/><rect width="3.069" height="29.384" rx="1.534" transform="translate(60.207 119.756)" opacity="0.1"/><rect width="21.051" height="3.947" rx="1.974" transform="translate(51.216 145.193)" opacity="0.1"/><rect width="3.069" height="29.384" rx="1.534" transform="translate(60.645 119.756)" fill="#54576b"/><rect width="21.051" height="3.947" rx="1.974" transform="translate(51.654 145.193)" fill="#54576b"/><path d="M235.825,550.3a20.6,20.6,0,0,1-37.438,0c-2.181-3.128-4.087-9.365-4.087-8.624a22.806,22.806,0,1,0,45.612,0C239.912,540.933,238.006,547.171,235.825,550.3Z" transform="translate(-155.365 -428.056)" fill="#54576b"/><path d="M224.173,445.55a22.8,22.8,0,0,0-18.719,9.794,20.49,20.49,0,0,0-1.894,8.624,20.759,20.759,0,0,0,.116,2.194,20.6,20.6,0,0,1,40.992,0,20.755,20.755,0,0,0,.116-2.194,20.49,20.49,0,0,0-1.894-8.624A22.8,22.8,0,0,0,224.173,445.55Z" transform="translate(-162.432 -354.74)" fill="#54576b"/><circle cx="0.876" cy="0.876" r="0.876" transform="translate(61.303 121.731)" opacity="0.1"/><circle cx="0.329" cy="0.329" r="0.329" transform="translate(102.965 143.658)" opacity="0.2"/><path d="M316.6,607.171a8.8,8.8,0,0,1-3.789-.831c-4.419-2.079-6.6-1.816-9.893-1.421a46.435,46.435,0,0,1-9.325.339,5.837,5.837,0,0,1-4.428-2.368c-4.888-6.346-1.617-23.055-1.475-23.763a.22.22,0,0,1,.431.085c-.033.17-3.374,17.22,1.392,23.407a5.415,5.415,0,0,0,4.108,2.2,45.956,45.956,0,0,0,9.235-.339c3.372-.407,5.6-.677,10.133,1.456,7.229,3.4,15.7-5.252,15.785-5.34a.22.22,0,0,1,.315.305C329.02,600.984,322.961,607.171,316.6,607.171Z" transform="translate(-225.719 -456.563)" fill="#dfe6f5"/><path d="M309.782,165.921a22.1,22.1,0,0,0-19.417-11c-12.029,0-21.819,9.05-21.819,20.175H267c0-11.97,10.478-21.71,23.353-21.71a23.991,23.991,0,0,1,18.383,8.335c.351,1.137.618,2.3.883,3.46C309.678,165.434,309.732,165.677,309.782,165.921Z" transform="translate(-210.85 -131.763)" fill="#535461"/><path d="M232.146,156h2.02v13.971h-2.02a5.816,5.816,0,0,1-5.816-5.816V161.83a5.816,5.816,0,0,1,5.816-5.83Z" transform="translate(-172.732 -119.073)" fill="#dfe6f5"/><rect width="3.429" height="13.959" rx="1.714" transform="translate(59.719 36.939)" fill="#535461"/><path d="M811.492,640.529s-3.76-1.274-5.569,2.039a6.043,6.043,0,0,0,.08,5.818,8.541,8.541,0,0,0,8.288,4.689c3.935-.211,5.245-3.213,5.6-6.008a6.171,6.171,0,0,0-8.2-6.607Z" transform="translate(-621.617 -503.221)" fill="#00abbd"/><path d="M806.814,648.35a6.043,6.043,0,0,1-.08-5.818c1.809-3.315,5.569-2.039,5.569-2.039l.192-.069a6.116,6.116,0,0,1,4.419.1,6.118,6.118,0,0,0-5.21-.5l-.192.069s-3.76-1.274-5.57,2.039a6.043,6.043,0,0,0,.081,5.818,8.99,8.99,0,0,0,4.262,4.025,9.319,9.319,0,0,1-3.471-3.628Z" transform="translate(-621.633 -502.887)" fill="#fff" opacity="0.1"/><path d="M823.52,648.64s1.395,1.1,4.779,0" transform="translate(-635.587 -509.739)" opacity="0.2"/><path d="M822.26,615s2.389,6.472,2.19,8.165l1.894-.2s-3.2-5.676-2.392-7.966Z" transform="translate(-634.626 -484.065)" fill="#00abbd"/><path d="M822.26,615s2.389,6.472,2.19,8.165l1.894-.2s-3.2-5.676-2.392-7.966Z" transform="translate(-634.626 -484.065)" opacity="0.2"/><path d="M839.638,614.177s-3.76-1.923-5.446-.334-1.942,5.65-1.942,5.65S838.386,620.338,839.638,614.177Z" transform="translate(-642.25 -482.702)" fill="#00abbd"/><path d="M839.638,614.177s-3.76-1.923-5.446-.334-1.942,5.65-1.942,5.65S838.386,620.338,839.638,614.177Z" transform="translate(-642.25 -482.702)" fill="#fff" opacity="0.1"/><path d="M832.26,622.6s.987-4.715,7.386-5.316" transform="translate(-642.258 -485.805)" fill="none" stroke="#00abbd" stroke-miterlimit="10" stroke-width="1"/></g></g></svg>