<svg xmlns="http://www.w3.org/2000/svg" xmlns:xlink="http://www.w3.org/1999/xlink" width="277.651" height="206.936" viewBox="0 0 277.651 206.936"><defs><linearGradient id="a" x1="0.5" y1="1" x2="0.5" gradientUnits="objectBoundingBox"><stop offset="0" stop-color="gray" stop-opacity="0.251"/><stop offset="0.54" stop-color="gray" stop-opacity="0.122"/><stop offset="1" stop-color="gray" stop-opacity="0.102"/></linearGradient></defs><g transform="translate(-0.012 -0.057)"><path d="M343.554,190.867c-.05.294-.1.587-.155.881a108.081,108.081,0,0,1-8.995,28.488q-.212.44-.433.881a81.42,81.42,0,0,1-10.135,15.63,32.434,32.434,0,0,1-7.28,6.832c-3.906,2.49-8.473,3.5-12.961,4.331-4.664.862-9.388,1.573-14.1,2.359q-2.506.409-4.981.857c-4.554.823-9.073,1.775-13.485,3.036a70.1,70.1,0,0,0-15.729,6.47q-.6.341-1.182.7c-.391.236-.786.477-1.167.724s-.763.49-1.14.739l-.582.393c-.191.126-.38.262-.569.388-.561.383-1.114.786-1.667,1.174l-.021.016q-.547.393-1.088.786c-2.042,1.513-4.04,3.1-6.03,4.685l-1.256,1-1.945,1.539c-.38.3-.766.6-1.148.9-.278.218-.553.435-.836.65-1.418,1.093-2.855,2.163-4.32,3.185-.349.244-.7.488-1.049.726a55.284,55.284,0,0,1-9.317,5.133l-.042.018a36.967,36.967,0,0,1-4.95,1.707,29.622,29.622,0,0,1-2.915.632,25.763,25.763,0,0,1-7.9.136c-5.162-.731-10-3.146-15.147-3.953-10.623-1.649-20.938,3.67-30.934,7.846q-3.67,1.536-7.422,2.884-2.485.9-4.994,1.707a157.236,157.236,0,0,1-31.335,6.7,72.417,72.417,0,0,1-13.3.359,44.958,44.958,0,0,1-4.981-.648,28.749,28.749,0,0,1-15.045-7.34,35.242,35.242,0,0,1-7.852-12.214q-1.135-2.734-2-5.594a62.393,62.393,0,0,1-2.037-9.131c-.1-.7-.194-1.4-.262-2.1q-.2-1.8-.3-3.618a62.656,62.656,0,0,1,1.864-19.137c1.785-6.918,4.763-13.543,6.074-20.527.055-.294.1-.587.155-.881q.262-1.573.4-3.2c.661-8.541-1.9-16.9-3.914-25.274-.071-.294-.142-.587-.21-.881q-.328-1.392-.621-2.787a70.478,70.478,0,0,1-.721-27.17c.052-.294.113-.59.173-.881a43.948,43.948,0,0,1,6.124-15.318,53.083,53.083,0,0,1,11.535-12.2Q94.6,129.966,98,127.751q2.446-1.589,4.981-3.007a83.018,83.018,0,0,1,44.64-10.486q1.224.063,2.443.168,1.279.11,2.551.262c9.917,1.146,19.567,3.985,29.159,7.091q4.821,1.573,9.626,3.146,2.139.7,4.276,1.376c6.986,2.2,14.088,4.194,21.256,5.694q2.493.524,4.981.957a117.728,117.728,0,0,0,17.457,1.8q3.408.084,6.816-.071,1.722-.079,3.447-.231c11.878-1.017,23.332-4.428,34.833-7.631,1.662-.464,3.327-.925,4.981-1.371,2.186-.587,4.375-1.156,6.572-1.68,13.679-3.285,25.869-1.4,38.587,5.377,2.884,1.539,5.767,3.395,7.55,6.268s2.215,6.431,2.545,9.854c.467,4.871.787,9.81.889,14.77,0,.294,0,.587.018.881A157.137,157.137,0,0,1,343.554,190.867Z" transform="translate(-70.44 -98.673)" fill="#00abbd" opacity="0.1"/><path d="M261.6,220.529H260.7v.881h1.012Zm-10.132,0a.057.057,0,0,0,0,.021l-.079.729v.131h7.76v-.052l.553-.828Zm-20.75,0V192.041h8.913c-.094-.079-.191-.157-.291-.231l-.131-.1c-.055-.045-.11-.087-.168-.126s-.194-.139-.3-.207-.165-.113-.262-.168l-.06-.039h-7.7v-1.56l-.207.1-.22.123h-.016l-.047.029-.136.089c-.047.029-.094.058-.139.089-.136.092-.262.191-.406.294l-.131.1c-.089.068-.173.139-.262.21-.349.286-.692.585-1.049.86-.089.071-.178.139-.262.2a6.764,6.764,0,0,1-.592.388,2.808,2.808,0,0,1-.262.144l-.147.068-.134.058h0a5.566,5.566,0,0,1-.975.309v27.849h-13.37a.4.4,0,0,0,.026.092c.073.262.147.524.218.786h13.129v30.538h.2l.233.016.425.031.687.068.309.037.341.042h.05c.2.026.4.058.6.089l.128.021.288.047.414.073h0l.994-.052h0l.136.029a.8.8,0,0,1,.168.034V221.41h20.66v-.131l.079-.729a.058.058,0,0,1,0-.021Zm30.882,0H260.7v.881h1.012Zm-10.691,0-.089.881h8.633l.587-.881Zm-20.186,0V192.041h8.913c-.094-.079-.191-.157-.291-.231l-.131-.1c-.055-.045-.11-.087-.168-.126s-.194-.139-.3-.207-.165-.113-.262-.168l-.06-.039h-7.71v-1.56l-.207.1-.22.123h-.016l-.047.029-.136.089c-.047.029-.094.058-.139.089-.136.092-.262.191-.406.294l-.131.1c-.089.068-.173.139-.262.21-.349.286-.692.585-1.049.86-.089.071-.178.139-.262.2a6.764,6.764,0,0,1-.592.388,2.808,2.808,0,0,1-.262.144l-.147.068-.134.058h0a5.566,5.566,0,0,1-.975.309v27.849h-13.37a.4.4,0,0,0,.026.092c.073.262.149.524.22.786h13.126v30.536l.2.013.233.016.425.031.687.068.309.037.341.042h.05c.2.026.4.058.6.089l.128.021.288.047.414.073h0l.994-.052h0l.136.029a.8.8,0,0,1,.168.034V221.41h20.11l.094-.881ZM298.267,161.2h56.162c0-.294,0-.587-.018-.881H298.267V125.734c-1.667.446-3.332.907-4.981,1.371v33.218H232.2l-.155-.168.233-.262h0L255,134.959q-3.408.157-6.816.071l-17.47,19.164V133.24q-2.5-.433-4.981-.957v20.946l-25.542-28.017c-3.206-1.049-6.412-2.116-9.626-3.146l34.717,38.089-.155.168H161.406V114.97q-1.274-.144-2.551-.262-1.219-.107-2.443-.168v45.783h-44.64V125.037q-2.54,1.416-4.981,3.007v32.279H82.513c-.06.291-.121.587-.173.881h24.43V191.16H83.693c.068.294.139.587.21.881h22.878v28.488H87.41c-.05.294-.1.587-.155.881h19.525v79.656a44.929,44.929,0,0,0,4.981.648v-80.3h44.65v73.241q2.511-.815,4.994-1.707V221.41h64.317V285.4a36.972,36.972,0,0,0,4.949-1.707l.042-.018V221.41H293.27v30.009q2.488-.448,4.981-.857V221.41h44.48q.22-.44.433-.881h-44.9V192.041h53.907c.055-.294.1-.587.155-.881H298.267Zm-186.492,0h44.637V191.16h-44.64Zm0,59.326V192.041h44.637v28.488ZM161.409,161.2h64.314V191.16H161.406Zm0,59.326V192.041h64.314v28.488Zm131.864,0H230.714V192.041H293.27Zm0-29.361H230.714V162.006l.878-.8H293.27Zm-41.806,29.361a.058.058,0,0,0,0,.021l-.079.729v.131h7.76v-.052l.553-.828Zm10.132,0h-.894v.881h1.012Zm-30.882,0V192.041h8.913c-.094-.079-.191-.157-.291-.231l-.131-.1c-.055-.045-.11-.087-.168-.126s-.194-.139-.3-.207-.165-.113-.262-.168l-.06-.039h-7.707v-1.56l-.207.1-.22.123h-.016l-.047.029-.136.089c-.047.029-.094.058-.139.089-.136.092-.262.191-.406.294l-.131.1c-.089.068-.173.139-.262.21-.349.286-.692.585-1.049.86-.089.071-.178.139-.262.2a6.764,6.764,0,0,1-.592.388,2.808,2.808,0,0,1-.262.144l-.147.068-.134.058h0a5.566,5.566,0,0,1-.975.309v27.849h-13.37a.4.4,0,0,0,.026.092c.073.262.147.524.218.786h13.129v30.538h.2l.233.016.425.031.687.068.309.037.341.042h.05c.2.026.4.058.6.089l.128.021.288.047.414.073h0l.994-.052h0l.136.029a.8.8,0,0,1,.168.034V221.41h20.66v-.131l.079-.729a.058.058,0,0,1,0-.021Z" transform="translate(-79.211 -98.965)" fill="#00abbd" opacity="0.1"/><path d="M271.832,208.592h.4a.954.954,0,0,1-.474-.768h0c0-.608.745-1.1,1.654-1.1h11.574c.91,0,1.654.5,1.654,1.1h0c0,.606-.745,1.1-1.654,1.1H284.6a.957.957,0,0,1,.472.768c0,.524-.54.954-1.264,1.072h3.332c.907,0,1.652.5,1.652,1.1s-.745,1.1-1.652,1.1H275.552c-.907,0-1.652-.5-1.652-1.1,0-.524.54-.954,1.264-1.072h-3.332c-.907,0-1.652-.5-1.652-1.1S270.919,208.592,271.832,208.592Z" transform="translate(-217.808 -166.98)" fill="#00abbd" opacity="0.1"/><path d="M750.352,248.662h.388a.957.957,0,0,1-.475-.771h0c0-.606.745-1.1,1.654-1.1h11.574c.91,0,1.654.5,1.654,1.1h0c0,.608-.745,1.1-1.654,1.1h-.385a.959.959,0,0,1,.472.771c0,.524-.54.952-1.264,1.07h3.332c.907,0,1.652.5,1.652,1.1s-.745,1.1-1.652,1.1H754.077c-.907,0-1.652-.5-1.652-1.1,0-.524.54-.954,1.264-1.07h-3.337c-.907,0-1.652-.5-1.652-1.1S749.45,248.662,750.352,248.662Z" transform="translate(-570.882 -196.545)" fill="#00abbd" opacity="0.1"/><path d="M204.1,420.124h.388a.96.96,0,0,1-.472-.771h0c0-.606.742-1.1,1.652-1.1h11.574c.91,0,1.654.5,1.654,1.1h0c0,.608-.745,1.1-1.654,1.1h-.385a.959.959,0,0,1,.472.771c0,.524-.54.952-1.264,1.07H219.4c.91,0,1.652.5,1.652,1.1s-.742,1.1-1.652,1.1H207.822c-.907,0-1.652-.5-1.652-1.1,0-.524.543-.954,1.264-1.072H204.1c-.907,0-1.652-.5-1.652-1.1S203.195,420.124,204.1,420.124Z" transform="translate(-167.834 -323.056)" fill="#00abbd" opacity="0.1"/><path d="M666.848,713.44l-1.945,1.539c-.38.3-.766.6-1.148.9-.278.218-.553.435-.836.65-1.418,1.093-2.855,2.163-4.32,3.185-.349.244-.7.488-1.049.726a55.291,55.291,0,0,1-9.317,5.133l-.042.018V713.44Z" transform="translate(-496.721 -540.861)" fill="#65617d"/><path d="M493.67,351.479l.294-9.057c-.176-.136-.354-.262-.524-.388a48.285,48.285,0,0,0-.461-8.077c-1.185-9.057-8.879-9.254-11.05-7.385a5.239,5.239,0,0,1-.936.645c.2-1.292.44-2.587.616-3.867.949-6.9-.524-14.662-5.878-19.122-2.241-1.864-4.981-3.01-7.443-4.569-4.409-2.781-7.893-6.889-12.353-9.6s-10.722-3.723-14.613-.241c-1.507,1.348-2.48,3.217-4.027,4.517-2.884,2.422-7.38,2.582-9.9,5.288h0c-.126.136-.246.275-.362.422-2.1,2.69-1.523,6.5-.855,9.841.8,4.016.472,7.235,3.917,8.389.013.16.024.32.042.477A17.016,17.016,0,0,0,437.629,331l-.558.2c-1.489.524-2.829,1.033-3.686,1.382-3.146,1.282-9.768,2.952-9.768,2.952s-.157,1.888-.128,4.672c-2.207,2.4-5.891,6.614-6.973,9.112-1.573,3.644-10.46,14.08-12.827,15.656s-4.934,3.445-4.934,3.445-3.749,2.068-5.524,2.265a29.755,29.755,0,0,1-5.033-.592S373,351.479,373.991,365.762s13.121,14.767,13.121,14.767l12.235-.2s6.612.886,9.571-1.573c2.527-2.1,15.624-13.6,19.832-18.823.1.107.194.212.3.315,0,0,1.675-2.165,1.874,0s-1.088,3.146-.4,3.932,2.763,3.544,2.86,4.627-2.761,5.505,2.071,8.861c.076.052.157.1.246.152.862,1.964,3.6,3.885,3.6,3.885l14.8-.2,27.922,2.165s.831-.731,1.956-1.927c1.5,1.379,3.586,2.561,5.935,1.835,0,0,3.356-4.035,3.455-6.693,0,0-2.171-5.613-3.146-7.285s.692-5.316.692-5.316,1.182-3.544,1.874-3.544.2-2.359.2-2.359a2.868,2.868,0,0,1-.3-2.658A25.439,25.439,0,0,0,493.67,351.479Z" transform="translate(-294.37 -226.654)" fill="url(#a)"/><path d="M682.159,451.568l-1.049,1.227h0l-4.236,4.934-5.534.336-8.858.545s-11.944-14.392-9.7-17.525a5.735,5.735,0,0,0,.786-4.029c-.021-.194-.05-.388-.084-.579a16.75,16.75,0,0,0-1.395-4.3l.294-.134.189-.087,10.444-4.766,2.585-1.18a6.976,6.976,0,0,0,.708,2.04c.05.1.1.2.163.294,3.563,5.9,14.987,2.168,14.987,2.168Z" transform="translate(-499.598 -328.782)" fill="#ee8e9e"/><path d="M774.516,450.951a17.222,17.222,0,0,1-.661,5.112l-14.783,2.252-.553-3.838-2.189-15.155,2.055-2.055a5.487,5.487,0,0,0,4.7-1.174c2.152-1.861,9.789-1.665,10.963,7.34A49.849,49.849,0,0,1,774.516,450.951Z" transform="translate(-576.511 -335.529)" fill="#ee8e9e"/><path d="M788.923,611.643s3.327-4.014,3.426-6.656l-3.329-5.581-2.936-3.146L780.6,606.846S784.223,613.111,788.923,611.643Z" transform="translate(-594.419 -454.4)" fill="#dfe5ee"/><path d="M788.923,611.643s3.327-4.014,3.426-6.656l-3.329-5.581-2.936-3.146L780.6,606.846S784.223,613.111,788.923,611.643Z" transform="translate(-594.419 -454.4)" opacity="0.1"/><path d="M238.615,696.561c-.278.218-.553.435-.836.65-1.418,1.093-2.855,2.163-4.32,3.185-.349.244-.7.488-1.049.726H148.783l-24.742-.886-19.9-.168-4.981-.262L74.31,698.5a62.392,62.392,0,0,1-2.047-9.139c-.1-.7-.194-1.4-.262-2.1l27.151,1.5,4.981.281,44.64,2.49,4.994.278,64.317,3.591,4.949.278h.042Z" transform="translate(-71.582 -521.544)" fill="#d48a9b"/><path d="M271.3,630.084a70.1,70.1,0,0,0-15.729,6.47c-.4.228-.786.461-1.182.7s-.786.477-1.167.724-.763.49-1.14.739l-.582.393-.569.388c-.561.385-1.114.787-1.667,1.174l-.021.016q-.547.393-1.088.786c-2.042,1.513-4.04,3.1-6.03,4.685q-.629.5-1.261,1l-1.94,1.539c-.38.3-.766.6-1.148.9-.278.218-.553.435-.836.65l-14.681-.7h-.042l-4.949-.231-64.346-3.049-4.994-.239-44.64-2.121-4.981-.239-26.9-1.266c-.1-.7-.194-1.4-.262-2.1q-.2-1.8-.3-3.618l27.463-9.7,4.981-1.764,4.525-1.6,8.245.43,19.056.978h0l12.825.674,4.994.262,3.19.168h0l.763.042h0l26.85,1.4h0l.283.018h0l11.98.624h.215l1.2.06h0l4.084.215,5.107.262h0l1.683.089h0l.317.018,2.38.123h0l.679.034h0l2.273.121h0l.9.05h.218l2.126.113,3.293.173h.016l1.022.052h.11l.611.034,1.5.079h0l1.311.068h.013l1.471.076h.024l1.114.06h0l.855.044,3.033.16h0l.545.029h.189l.262.016h0l.889.047h0l.4.021h0l3.093.16h.283l4.567-.039h.031l17.363-.142h1.717l5.589-.045h.834Z" transform="translate(-70.726 -474.595)" fill="#efc6cd"/><path d="M387.307,641.356l1.615,8.591,43.906-.661s3.3.954,3.23-1.688c0,0,6.682-6.315,40.529,1.028l-13-10.206-35.522,1.909-41.19-1.1Z" transform="translate(-303.915 -485.508)" fill="#00abbd"/><path d="M391.59,640.447l1.541,9.325s37.75-1.1,43.685-.073l-4.485-8.517S409.506,639.052,391.59,640.447Z" transform="translate(-307.39 -486.654)" fill="#fff"/><path d="M391.59,640.447l1.541,9.325s37.75-1.1,43.685-.073l-4.485-8.517S409.506,639.052,391.59,640.447Z" transform="translate(-307.39 -486.654)" opacity="0.1"/><path d="M393.74,640.41l1.52,8.672s37.271-1.022,43.143-.068l-4.423-7.92S411.43,639.112,393.74,640.41Z" transform="translate(-308.976 -486.651)" fill="#fff"/><path d="M396.35,641.5l1.481,8.111s36.453-.957,42.207-.063l-4.326-7.411S413.655,640.272,396.35,641.5Z" transform="translate(-310.902 -487.47)" opacity="0.1"/><path d="M397.47,640.382l1.489,8.127s36.453-.957,42.207-.063l-4.336-7.419S414.775,639.168,397.47,640.382Z" transform="translate(-311.728 -486.652)" fill="#fff"/><path d="M284.325,557.41s1.909,2.493-.878,6.26-5.088,6.944-4.158,9.293c0,0,4.194-6.994,7.629-7.078S288.092,561.615,284.325,557.41Z" transform="translate(-224.374 -425.735)" fill="#00abbd"/><path d="M284.628,557.41a3.031,3.031,0,0,1,.391.786c3.34,3.932,5.12,7.6,1.909,7.681-2.991.084-6.577,5.432-7.437,6.785q.045.152.1.307s4.194-6.994,7.629-7.078S288.4,561.615,284.628,557.41Z" transform="translate(-224.677 -425.735)" opacity="0.1"/><path d="M311.38,567.955c0,.876-.1,1.589-.22,1.589s-.22-.713-.22-1.589.123-.467.244-.467S311.38,567.077,311.38,567.955Z" transform="translate(-247.883 -433.1)" fill="#ffd037"/><path d="M313.028,571.828c-.771.422-1.442.676-1.5.569s.524-.524,1.29-.954.467-.115.524,0S313.8,571.408,313.028,571.828Z" transform="translate(-248.314 -435.927)" fill="#ffd037"/><path d="M248.61,557.41s-1.908,2.493.881,6.26,5.086,6.944,4.158,9.293c0,0-4.208-6.994-7.631-7.078S244.843,561.615,248.61,557.41Z" transform="translate(-198.734 -425.735)" fill="#00abbd"/><path d="M248.61,557.41a3.146,3.146,0,0,0-.391.786c-3.34,3.932-5.12,7.6-1.908,7.681,2.991.084,6.58,5.432,7.44,6.785a3.142,3.142,0,0,1-.1.307s-4.208-6.994-7.631-7.078S244.843,561.615,248.61,557.41Z" transform="translate(-198.734 -425.735)" opacity="0.1"/><path d="M247.13,567.955c0,.876.1,1.589.22,1.589s.22-.713.22-1.589-.123-.467-.244-.467S247.13,567.077,247.13,567.955Z" transform="translate(-200.801 -433.1)" fill="#ffd037"/><path d="M241.174,571.828c.771.422,1.444.676,1.5.569s-.524-.524-1.29-.954-.467-.115-.524,0S240.4,571.408,241.174,571.828Z" transform="translate(-196.061 -435.927)" fill="#ffd037"/><path d="M261.23,600.634l-.094.786-.134,1.1-.055.459-.134,1.1-.058.459-.136,1.1-1.526,12.51c-.136,1.117-1.961,1.987-4.163,1.987h-7.922c-2.2,0-4.024-.87-4.16-1.987l-1.528-12.51-.134-1.1-.055-.459-.136-1.1-.055-.459-.134-1.1-.1-.786c-.076-.632.91-1.164,2.158-1.164h16.217C260.328,599.47,261.316,600,261.23,600.634Z" transform="translate(-196.06 -456.769)" fill="#65617d"/><path d="M190.988,551.59l-.134,1.1H170.784l-.134-1.1Z" transform="translate(-125.904 -406.946)" fill="#9d9cb5"/><path d="M191.33,557.54l-.134,1.1h-19.69l-.136-1.1Z" transform="translate(-126.435 -411.336)" fill="#9d9cb5"/><path d="M191.678,563.49l-.134,1.1h-19.31l-.134-1.1Z" transform="translate(-126.974 -415.726)" fill="#9d9cb5"/><path d="M397.5,594.99s-5.091-4.894-4.894,1.468S397.5,594.99,397.5,594.99Z" transform="translate(-308.134 -452.137)" fill="#ee8e9e"/><path d="M429.047,502.983a7.427,7.427,0,0,1-1.515,2.336c-4.415,5.317-16.975,16.366-19.436,18.416-2.936,2.448-9.5,1.573-9.5,1.573l-12.138.2s-12.041-.49-13.021-14.681,14.1,4.307,14.1,4.307a29.44,29.44,0,0,0,4.994.587c1.762-.194,5.482-2.249,5.482-2.249s2.546-1.861,4.894-3.426,11.16-11.944,12.728-15.567c.994-2.3,4.194-6.058,6.4-8.5,1.269-1.4,2.21-2.359,2.21-2.359S429.731,499.947,429.047,502.983Z" transform="translate(-293.965 -371.289)" fill="#ee8e9e"/><path d="M565.957,502.953a7.427,7.427,0,0,1-1.515,2.336c-4.457-4.538-5.387-13.593-5.492-19.35,1.269-1.4,2.21-2.359,2.21-2.359S566.642,499.918,565.957,502.953Z" transform="translate(-430.876 -371.26)" opacity="0.1"/><path d="M681.108,469.529h0l-4.234,4.934-5.534.336-8.858.545s-11.944-14.392-9.7-17.525a5.735,5.735,0,0,0,.786-4.029c-.021-.194-.05-.388-.084-.579a16.749,16.749,0,0,0-1.395-4.3l.294-.134.189-.087a18.8,18.8,0,0,1,.96,4.014c.029.186.055.38.081.579.092.708.176,1.494.262,2.359.682,7.922,5.665,10.9,7.914,11.852a22.837,22.837,0,0,1,2.118,1.025,11.3,11.3,0,0,0,7.1,1.285c5.552-.729,10.08-4.763,10.08-4.763l.024,3.972Z" transform="translate(-499.598 -345.516)" opacity="0.1"/><path d="M613.992,496.816s-36.416-.1-41.216-3.426-1.956-7.734-2.055-8.811-2.152-3.817-2.837-4.6.587-1.762.391-3.914-1.859,0-1.859,0c-6.855-6.952-5.387-24.572-5.387-24.572s6.554-1.662,9.7-2.939c.852-.346,2.179-.839,3.67-1.371l.553-.2c3.846-1.376,8.418-2.931,8.418-2.931s.878-.621,1.762,1.237a16.337,16.337,0,0,1,1.135,4.43c.029.186.055.38.081.579.092.708.176,1.494.262,2.359.682,7.922,5.665,10.9,7.914,11.852a22.827,22.827,0,0,1,2.118,1.025,11.3,11.3,0,0,0,7.1,1.285c5.552-.729,10.08-4.763,10.08-4.763l.024,3.972.068,11.933Z" transform="translate(-432.312 -342.019)" fill="#dfe5ee"/><path d="M645.823,582.812l-.587,3.72s-14.489,3.62-20.165,4.7-17.916-.294-18.8,2.055,3.72,5.581,3.72,5.581l14.681-.2,27.7,2.155s10.573-9.3,7.146-15.763S645.823,582.812,645.823,582.812Z" transform="translate(-465.711 -443.482)" fill="#ee8e9e"/><path d="M627.949,474.58s-6.659,5.482-5.385,8.127S627.949,474.58,627.949,474.58Z" transform="translate(-477.693 -364.619)" opacity="0.1"/><path d="M594.236,512.29s-6.756,11.65-6.363,12.531,2.252,4.014,2.152,1.665S594.236,512.29,594.236,512.29Z" transform="translate(-452.204 -392.443)" opacity="0.1"/><path d="M612.939,520.14s-1.573,7.243-3.133,10.279S612.939,520.14,612.939,520.14Z" transform="translate(-468.165 -398.235)" opacity="0.1"/><path d="M637.141,428.373a16.935,16.935,0,0,1-12.872,8.709h-.031a16.907,16.907,0,0,1-11.918-3.12c3.932-1.421,8.971-3.13,8.971-3.13s.878-.621,1.762,1.237l13.218-6.03A7.007,7.007,0,0,0,637.141,428.373Z" transform="translate(-470.254 -328.804)" opacity="0.1"/><path d="M619.55,354.125a16.858,16.858,0,0,1-2.228,8.4,17.058,17.058,0,0,1-2.525,3.361,16.865,16.865,0,0,1-10.266,5.075H604.5a16.534,16.534,0,0,1-1.882.107,16.935,16.935,0,0,1-16.828-15.027,16.423,16.423,0,0,1-.107-1.911,16.935,16.935,0,1,1,33.87,0Z" transform="translate(-450.598 -263.254)" fill="#ee8e9e"/><path d="M753.434,500.731l1.573-2.359s8.614-10.279,17.04-3.72l-.294,9.008a23.879,23.879,0,0,1-.981,4.194,2.865,2.865,0,0,0,.294,2.645s.49,2.359-.194,2.359-1.861,3.523-1.861,3.523-1.665,3.623-.684,5.288,3.133,7.243,3.133,7.243a10.792,10.792,0,0,1-4.407-5.482s-8.321-6.462-14.783-2.359Z" transform="translate(-573.516 -377.815)" opacity="0.1"/><path d="M780.677,490.316a17.224,17.224,0,0,1-.661,5.112l-14.783,2.252-.553-3.838C766.615,491.824,773.651,485.406,780.677,490.316Z" transform="translate(-582.672 -374.895)" opacity="0.1"/><path d="M753.434,498.731l1.573-2.359s8.614-10.279,17.04-3.72l-.294,9.008a23.879,23.879,0,0,1-.981,4.195,2.865,2.865,0,0,0,.294,2.645s.49,2.359-.194,2.359-1.861,3.523-1.861,3.523-1.665,3.623-.684,5.288,3.133,7.243,3.133,7.243a10.792,10.792,0,0,1-4.407-5.482s-8.321-6.462-14.783-2.359Z" transform="translate(-573.516 -376.339)" fill="#dfe5ee"/><path d="M771.641,496.61s-14.193,8.714-13.509,16.356C758.133,512.966,766.063,498.959,771.641,496.61Z" transform="translate(-577.824 -380.874)" opacity="0.1"/><path d="M632.024,387.244l.068,11.933c-2.684.121-5.214-.228-7.214-1.966a8.657,8.657,0,0,1-2.622-4.693,16.626,16.626,0,0,1-.341-4.438.247.247,0,0,1,0-.045c.165-3.3.923-6.591.524-9.865s-2.383-6.73-5.623-7.419a3.4,3.4,0,0,1-1.814-.658,2.631,2.631,0,0,1-.425-2.066l.094-1.224c.024-.315.034-.627.034-.938a12.014,12.014,0,0,0-9.7-11.781l-.1-.018a6.625,6.625,0,0,0-2.774-.155c-1.735.4-2.857,2.084-4.457,2.884-3.067,1.531-8.182-.144-11.393-.671-.21-.034-.409-.073-.6-.118a16.43,16.43,0,0,1-.107-1.911,16.935,16.935,0,1,1,31.642,8.4c.05.1.1.2.163.294,3.563,5.9,14.987,2.168,14.987,2.168l.687,21.048Z" transform="translate(-450.517 -263.229)" opacity="0.1"/><path d="M585.96,322.373c1.589-.8,2.711-2.485,4.457-2.884a6.688,6.688,0,0,1,2.776.152l.1.021a12.025,12.025,0,0,1,9.655,12.722l-.094,1.224a2.593,2.593,0,0,0,.427,2.063,3.314,3.314,0,0,0,1.812.655c3.24.692,5.225,4.129,5.623,7.422s-.372,6.6-.524,9.907.456,6.96,2.957,9.134c3.932,3.408,9.909,1.468,15.113,1.156-2.3,0-4.027-2.375-4.153-4.672s.9-4.483,1.874-6.554,1.958-4.3,1.741-6.591c-.3-3.146-2.779-5.665-3.728-8.693-1.106-3.523-.039-7.306.461-10.969.941-6.858-.524-14.578-5.833-19.011-2.223-1.853-4.942-2.994-7.385-4.546-4.378-2.776-7.831-6.847-12.256-9.548s-10.638-3.7-14.5-.241c-1.494,1.34-2.459,3.2-4,4.491-3,2.53-7.773,2.577-10.18,5.681-2.071,2.671-1.51,6.465-.847,9.781.883,4.423.385,7.865,5.112,8.651C577.778,322.232,582.89,323.907,585.96,322.373Z" transform="translate(-438.19 -229.099)" fill="#603556"/><path d="M624.81,395.435c-3.788.464-7.542.7-10.3-1.688-2.5-2.173-3.117-5.822-2.957-9.133s.925-6.619.524-9.909-2.383-6.727-5.623-7.419a3.363,3.363,0,0,1-1.811-.655,2.614,2.614,0,0,1-.427-2.066l.094-1.224a12.022,12.022,0,0,0-9.655-12.72l-.1-.021a6.686,6.686,0,0,0-2.776-.152c-1.735.4-2.858,2.1-4.457,2.884-3.07,1.534-8.179-.142-11.4-.668-4.719-.773-4.226-4.221-5.112-8.651-.5-2.475-.933-5.217-.262-7.561a4.137,4.137,0,0,0-.362.422c-2.071,2.671-1.51,6.465-.847,9.781.884,4.423.385,7.865,5.112,8.651,3.214.524,8.326,2.2,11.4.668,1.589-.8,2.711-2.485,4.457-2.884a6.687,6.687,0,0,1,2.776.152l.1.021a12.025,12.025,0,0,1,9.655,12.722l-.094,1.224a2.593,2.593,0,0,0,.427,2.063,3.314,3.314,0,0,0,1.812.655c3.24.692,5.225,4.129,5.623,7.422s-.37,6.6-.524,9.907.456,6.96,2.957,9.133c3.932,3.408,9.909,1.468,15.113,1.156A3.987,3.987,0,0,1,624.81,395.435Z" transform="translate(-438.094 -262.701)" opacity="0.1"/><path d="M370.078,577.565l16.162-6.03a1.539,1.539,0,0,1,1.979.9h0a1.539,1.539,0,0,1-.9,1.979l-16.162,6.03-3.466-.346Z" transform="translate(-289.755 -436.085)" fill="#5c5c8e"/><path d="M387.7,572.625h0a1.539,1.539,0,0,1-.9,1.979l-16.172,6.051-2.6-.262-.375.4,3.466.346,16.162-6.029a1.539,1.539,0,0,0,.9-1.979h0a1.539,1.539,0,0,0-.629-.768A1.784,1.784,0,0,1,387.7,572.625Z" transform="translate(-289.726 -436.766)" fill="#fff" opacity="0.1"/><path d="M299.648,539.52l1.075,2.881-2.842-.286-.621-.063.849-.9Z" transform="translate(-219.323 -398.04)" fill="#efc8c4"/><path d="M368.561,601a.687.687,0,0,1,.168.181.262.262,0,0,1,0,.281.561.561,0,0,1-.155.113.524.524,0,0,0-.231.388l-.624-.06Z" transform="translate(-289.777 -457.898)" fill="#727a9c"/><path d="M569.529,638.563s14-2.939,37.488.786l-9.2-6.753-16.741-3.426-11.844,3.146Z" transform="translate(-438.461 -478.683)" fill="#fff"/><path d="M569.529,638.563s14-2.939,37.488.786l-9.2-6.753-16.741-3.426-11.844,3.146Z" transform="translate(-438.461 -478.683)" opacity="0.1"/><path d="M551.537,644.008s7.049-19.069,43.256.06l-13-8.363s-31.131-8.6-34.728,1.311Z" transform="translate(-422.11 -480.95)" fill="#fff"/><path d="M551.485,640.1s7.049-20.388,43.256.367l-12.995-9.071s-31.141-10.287-34.746.48Z" transform="translate(-422.058 -477.052)" opacity="0.1"/><path d="M551.537,639.885s7.049-20.689,43.256.066l-13-9.071s-31.131-9.993-34.728.786Z" transform="translate(-422.11 -476.833)" fill="#fff"/><path d="M551.508,637.524s7.049-22.994,43.256.354l-13.005-10.206s-31.131-10.486-34.728,1.615Z" transform="translate(-422.08 -474.467)" opacity="0.1"/><path d="M551.508,636.685s7.049-23.274,43.256.073l-13.005-10.206s-31.131-10.486-34.728,1.615Z" transform="translate(-422.08 -473.64)" fill="#fff"/><path d="M966.818,668.71s-8.69,9.309-.868,13.831a2.17,2.17,0,0,0,2.483.587s-.493-.438.5-1.282a5.862,5.862,0,0,0,.931-1.022,2.884,2.884,0,0,0,.54-1.746h0s1.138-3.694-2.477-8.489c0,0-.328-1.6-.606-1.78l-.661,2.236a3.851,3.851,0,0,1,2.283,1.686s-2.186-1.717-2.4-1.358c-.042.073-.3,1.2-.3,1.2s2.884.745,3.786,2.726c0,0-2.331-2.393-3.885-2.3l-.283,1.725s3.086.64,4.194,2.858c0,0-2.522-2.42-4.236-2.475l-.05,1.733s3,.682,3.911,2.532c0,0-3.2-2.5-3.9-2.134a8.565,8.565,0,0,0,.262,2.013s2.139.524,2.574,1.662c0,0-2.312-1.445-2.511-1.224a9.02,9.02,0,0,0,1.486,2.939,6.521,6.521,0,0,1-1.8-2.826,3.6,3.6,0,0,0-.435,2.011s-.857-.949.291-2.511a8.284,8.284,0,0,1-.315-1.882,7.83,7.83,0,0,0-1.7,2.622s-.262-1.552,1.694-3.07V675.23a11.131,11.131,0,0,0-2.27,2.8s-.026-1.625,2.31-3.243l.262-1.7a13.266,13.266,0,0,0-2.425,2.47,5.275,5.275,0,0,1,2.517-2.952l.307-1.111s-1.248,1.022-1.573,1.347-.448.262-.448.262a5.5,5.5,0,0,1,2.15-2.082A12.523,12.523,0,0,0,966.818,668.71Z" transform="translate(-728.769 -507.857)" fill="#00abbd" opacity="0.1"/><path d="M1105.239,90.91s-11.611,5.243-6.137,12.424a2.173,2.173,0,0,0,2.063,1.5s-.286-.6.952-.994a5.743,5.743,0,0,0,1.253-.585,2.884,2.884,0,0,0,1.172-1.4h0s2.475-2.968.988-8.785c0,0,.317-1.607.129-1.877L1104.185,93a3.848,3.848,0,0,1,1.458,2.435s-1.353-2.428-1.688-2.176c-.068.05-.737.994-.737.994s2.359,1.8,2.441,3.977c0,0-1.227-3.109-2.7-3.623l-.925,1.484s2.6,1.78,2.774,4.255c0,0-1.395-3.2-2.954-3.917L1101.136,98s2.5,1.785,2.622,3.846c0,0-1.984-3.539-2.771-3.471a8.143,8.143,0,0,0-.524,1.958s1.767,1.311,1.735,2.527c0,0-1.573-2.223-1.835-2.1a8.978,8.978,0,0,0,.239,3.285,6.508,6.508,0,0,1-.574-3.3,3.588,3.588,0,0,0-1.177,1.688s-.425-1.209,1.237-2.207a8.221,8.221,0,0,1,.435-1.856,7.826,7.826,0,0,0-2.572,1.754s.354-1.534,2.747-2.178l.682-1.6a11.143,11.143,0,0,0-3.177,1.709s.6-1.51,3.382-2.1l.894-1.463a13.389,13.389,0,0,0-3.19,1.342,5.3,5.3,0,0,1,3.463-1.751l.711-.907s-1.547.461-1.979.634-.524.071-.524.071a5.5,5.5,0,0,1,2.8-1.091A13.755,13.755,0,0,0,1105.239,90.91Z" transform="translate(-828.342 -81.53)" fill="#00abbd" opacity="0.1"/><path d="M674.5,103.29s-17.444,4.981-8.963,12.395a3.365,3.365,0,0,0,3.167,1.573s-.451-.608,1.416-.978a11.092,11.092,0,0,0,1.882-.556,3.358,3.358,0,0,0,1.735-1.387h0s3.67-2.936,1.261-8.856c0,0,.438-1.615.144-1.893l-2.181,1.788s2.1,1.077,2.273,2.5c0,0-2.116-2.488-2.622-2.244-.1.05-1.091.983-1.091.983s3.639,1.882,3.8,4.087c0,0-1.94-3.175-4.194-3.733l-1.363,1.473s3.985,1.869,4.312,4.375c0,0-2.2-3.274-4.577-4.037l-1.049,1.573s3.838,1.872,4.09,3.959c0,0-3.1-3.631-4.291-3.586a6.144,6.144,0,0,0-.747,1.969s2.711,1.384,2.7,2.6c0,0-2.449-2.291-2.852-2.171a6.247,6.247,0,0,0,.451,3.327,4.983,4.983,0,0,1-.96-3.353,3.942,3.942,0,0,0-1.735,1.673s-.676-1.23,1.814-2.194c0,0,.317-1.673.608-1.867a12.823,12.823,0,0,0-3.846,1.7s.493-1.541,4.1-2.129l.991-1.6s-3.618.818-4.766,1.644c0,0,.873-1.51,5.067-2.034l1.311-1.455a25.793,25.793,0,0,0-4.8,1.271s1.272-1.271,5.2-1.678l1.049-.9s-2.331.425-2.981.587-.786.058-.786.058a10.326,10.326,0,0,1,4.194-1.028S674.65,103.4,674.5,103.29Z" transform="translate(-507.803 -90.665)" fill="#00abbd" opacity="0.1"/><path d="M892.273,803.576s8.782-9.225,1-13.823a2.174,2.174,0,0,0-2.477-.613s.49.443-.506,1.279a5.91,5.91,0,0,0-.941,1.012,2.865,2.865,0,0,0-.556,1.741h0s-1.177,3.683,2.394,8.512c0,0,.312,1.607.587,1.788l.684-2.231a3.849,3.849,0,0,1-2.268-1.707s2.168,1.735,2.383,1.379c.045-.073.309-1.2.309-1.2s-2.884-.786-3.759-2.763c0,0,2.307,2.417,3.864,2.336l.3-1.722s-3.078-.669-4.171-2.884c0,0,2.5,2.443,4.213,2.517l.065-1.735s-2.991-.724-3.9-2.585c0,0,3.172,2.532,3.875,2.173a7.809,7.809,0,0,0-.262-2.013s-2.134-.561-2.559-1.688c0,0,2.3,1.468,2.5,1.248a8.993,8.993,0,0,0-1.458-2.952,6.517,6.517,0,0,1,1.777,2.842,3.582,3.582,0,0,0,.454-2.005s.849.959-.315,2.509a8.285,8.285,0,0,1,.3,1.885,7.849,7.849,0,0,0,1.72-2.593s.262,1.555-1.722,3.052l-.026,1.746a11.127,11.127,0,0,0,2.3-2.784s0,1.628-2.341,3.222l-.262,1.693a13.3,13.3,0,0,0,2.448-2.446,5.282,5.282,0,0,1-2.545,2.926l-.317,1.109s1.258-1.009,1.594-1.332.451-.262.451-.262a5.487,5.487,0,0,1-2.171,2.06A13.438,13.438,0,0,0,892.273,803.576Z" transform="translate(-674.114 -596.584)" fill="#00abbd" opacity="0.1"/><path d="M575.85,55.657s1.5,12.646,10,9.595a2.174,2.174,0,0,0,2.053-1.518s-.655.094-.661-1.206a5.868,5.868,0,0,0-.181-1.371,2.862,2.862,0,0,0-.983-1.539h0s-2.087-3.256-8.093-3.576c0,0-1.437-.786-1.751-.687l1.282,1.948a3.839,3.839,0,0,1,2.76-.655s-2.721.561-2.582.954c.026.081.724,1,.724,1s2.451-1.73,4.548-1.14c0,0-3.332.231-4.265,1.481l1.119,1.332s2.48-1.945,4.894-1.366c0,0-3.476.367-4.627,1.638l1.306,1.159s2.454-1.851,4.457-1.353c0,0-3.974.828-4.147,1.6a8.383,8.383,0,0,0,1.712,1.1s1.793-1.287,2.931-.894c0,0-2.6.834-2.556,1.127a9.011,9.011,0,0,0,3.2.76,6.653,6.653,0,0,1-3.322-.446,3.6,3.6,0,0,0,1.256,1.631s-1.279.039-1.733-1.835a8.354,8.354,0,0,1-1.638-.973,7.846,7.846,0,0,0,.9,2.978s-1.358-.786-1.253-3.274l-1.311-1.135a11.188,11.188,0,0,0,.674,3.547s-1.258-1.03-.986-3.859l-1.125-1.292a13.318,13.318,0,0,0,.317,3.445A5.278,5.278,0,0,1,578.146,59l-.653-.952s-.024,1.612,0,2.079-.089.511-.089.511a5.505,5.505,0,0,1-.2-3A13.386,13.386,0,0,0,575.85,55.657Z" transform="translate(-443.345 -55.29)" fill="#00abbd" opacity="0.1"/><path d="M782.225,733.525s-12.274-3.408-12.667,5.621a2.175,2.175,0,0,0,.627,2.475s.16-.64,1.366-.155a5.875,5.875,0,0,0,1.337.354,2.865,2.865,0,0,0,1.8-.33h0s3.8-.7,6.381-6.119c0,0,1.271-1.03,1.311-1.361l-2.289.448a3.848,3.848,0,0,1-.44,2.805s.524-2.732.1-2.753c-.086,0-1.2.291-1.2.291s.671,2.9-.669,4.617c0,0,1.049-3.172.244-4.509l-1.662.548s.86,3.031-.592,5.044c0,0,.98-3.353.236-4.9l-1.557.758s.786,2.973-.438,4.64c0,0,.739-3.99.092-4.444a8.528,8.528,0,0,0-1.659,1.169s.524,2.147-.283,3.052c0,0,.21-2.719-.076-2.792a8.975,8.975,0,0,0-1.919,2.677,6.518,6.518,0,0,1,1.673-2.9,3.6,3.6,0,0,0-1.984.543s.446-1.2,2.359-.9a8.214,8.214,0,0,1,1.523-1.148,7.79,7.79,0,0,0-3.1-.3s1.253-.954,3.5.084l1.552-.786a11.18,11.18,0,0,0-3.536-.718s1.429-.786,3.932.548l1.62-.553a13.339,13.339,0,0,0-3.308-1.009,5.285,5.285,0,0,1,3.78.87l1.127-.244s-1.484-.634-1.927-.786-.44-.262-.44-.262a5.506,5.506,0,0,1,2.839.944A13.574,13.574,0,0,0,782.225,733.525Z" transform="translate(-586.158 -555.215)" fill="#00abbd" opacity="0.1"/></g></svg>