<svg xmlns="http://www.w3.org/2000/svg" width="270" height="212" viewBox="0 0 270 212"><g transform="translate(-41 -1641)"><g transform="translate(41 1641)" stroke="#707070" stroke-width="1" opacity="0"><rect width="270" height="212" stroke="none"/><rect x="0.5" y="0.5" width="269" height="211" fill="none"/></g><path d="M341.35,159.582c-9.219,14.914-7.492,35.231-3.443,51.251,1.355,5.364,2.916,11.026,1.757,17.029-1.417,7.34-6.582,13.1-11.809,16.405-9.53,6-20.412,5.836-28.336-.44-6.843-5.421-11.349-14.876-18.336-20.007-11.682-8.588-27.725-3.383-41.654,4.643-9.851,5.665-20.693,12.873-29.8,8.792-6.405-2.866-10.4-10.952-12.264-19.751-.9-4.248-1.444-8.889-3.507-12.125a13.608,13.608,0,0,0-4.665-4.268c-15.97-9.629-37.577-1.578-52.978-12.483-10.4-7.362-16.316-22.569-18.259-38.83s-.345-33.66,1.655-50.791c1.424-12.179,3.351-25.209,9.744-35.114,6.763-10.477,17.424-15.162,26.691-14.168s17.312,6.865,24.247,14.041c8.667,8.968,16.485,20.422,27.7,23.315,7.641,1.971,15.985-.311,24.11-1.6,13.566-2.158,26.944-1.539,40.227-.728,12.716.775,25.51,1.74,37.359,6.214,8.384,3.169,14.819,9.766,22.644,14.056,5.1,2.8,10.855,3.152,15.607,6.88a23.468,23.468,0,0,1,8.575,23.79C354.385,145.889,346.242,151.668,341.35,159.582Z" transform="translate(-53.863 1594.345)" fill="#00abbd" opacity="0.1"/><g transform="translate(46.498 1665.896)"><rect width="105.443" height="3.093" transform="translate(145.411 68.438)" fill="#e6e6e6"/><rect width="26.712" height="26.712" transform="translate(154.127 42.569)" fill="#e6e6e6"/><rect width="16.027" height="16.027" transform="translate(159.47 47.912)" fill="#ccc"/><rect width="6.748" height="26.712" transform="translate(214.019 42.569)" fill="#e6e6e6"/><rect width="6.748" height="3.093" transform="translate(214.019 46.787)" fill="#ccc"/><rect width="6.748" height="3.093" transform="translate(214.019 60.284)" fill="#ccc"/><rect width="6.748" height="26.712" transform="translate(203.616 42.569)" fill="#e6e6e6"/><rect width="6.748" height="3.093" transform="translate(203.616 46.787)" fill="#ccc"/><rect width="6.748" height="3.093" transform="translate(203.616 60.284)" fill="#ccc"/><rect width="6.748" height="26.712" transform="matrix(0.896, -0.444, 0.444, 0.896, 220.534, 45.454)" fill="#e6e6e6"/><rect width="6.748" height="3.093" transform="matrix(0.896, -0.444, 0.444, 0.896, 222.406, 49.233)" fill="#ccc"/><rect width="6.748" height="3.093" transform="matrix(0.896, -0.444, 0.444, 0.896, 228.394, 61.329)" fill="#ccc"/><path d="M509.755,170.382l3.4,5.886,3.4,5.886H502.958l3.4-5.886Z" transform="translate(-345.645 -117.09)" fill="#e6e6e6"/><path d="M528.634,173.978l3.4,5.886,3.4,5.886H521.837l3.4-5.886Z" transform="translate(-358.619 -119.562)" fill="#e6e6e6"/><circle cx="1.968" cy="1.968" r="1.968" transform="translate(170.436 48.755)" fill="#e6e6e6"/><rect width="105.443" height="3.093" transform="translate(250.854 29.073) rotate(180)" fill="#e6e6e6"/><rect width="26.712" height="26.712" transform="translate(242.137 26.823) rotate(180)" fill="#e6e6e6"/><rect width="16.027" height="16.027" transform="translate(236.795 21.481) rotate(180)" fill="#ccc"/><rect width="6.748" height="26.712" transform="translate(182.246 26.823) rotate(180)" fill="#e6e6e6"/><rect width="6.748" height="3.093" transform="translate(182.246 7.422) rotate(180)" fill="#ccc"/><rect width="6.748" height="3.093" transform="translate(182.246 20.919) rotate(180)" fill="#ccc"/><rect width="6.748" height="26.712" transform="translate(192.649 26.823) rotate(180)" fill="#e6e6e6"/><rect width="6.748" height="3.093" transform="translate(192.649 7.422) rotate(180)" fill="#ccc"/><rect width="6.748" height="3.093" transform="translate(192.649 20.919) rotate(180)" fill="#ccc"/><rect width="6.748" height="26.712" transform="matrix(-0.896, -0.444, 0.444, -0.896, 163.879, 26.934)" fill="#e6e6e6"/><rect width="6.748" height="3.093" transform="matrix(-0.896, -0.444, 0.444, -0.896, 172.487, 9.547)" fill="#ccc"/><rect width="6.748" height="3.093" transform="matrix(-0.896, -0.444, 0.444, -0.896, 166.498, 21.642)" fill="#ccc"/><path d="M727.311,34.634l-3.4,5.886-3.4,5.886h13.594l-3.4-5.886Z" transform="translate(-495.155 -23.801)" fill="#e6e6e6"/><path d="M708.432,38.23l-3.4,5.886L701.635,50h13.594l-3.4-5.886Z" transform="translate(-482.181 -26.272)" fill="#e6e6e6"/><circle cx="1.968" cy="1.968" r="1.968" transform="translate(221.892 6.297)" fill="#e6e6e6"/><rect width="105.443" height="3.093" transform="translate(250.854 113.99) rotate(180)" fill="#e6e6e6"/><rect width="26.712" height="26.712" transform="translate(242.137 111.74) rotate(180)" fill="#e6e6e6"/><rect width="16.027" height="16.027" transform="translate(236.795 106.398) rotate(180)" fill="#ccc"/><rect width="6.748" height="26.712" transform="translate(182.246 111.74) rotate(180)" fill="#e6e6e6"/><rect width="6.748" height="3.093" transform="translate(182.246 92.339) rotate(180)" fill="#ccc"/><rect width="6.748" height="3.093" transform="translate(182.246 105.835) rotate(180)" fill="#ccc"/><rect width="6.748" height="26.712" transform="translate(192.649 111.74) rotate(180)" fill="#e6e6e6"/><rect width="6.748" height="3.093" transform="translate(192.649 92.339) rotate(180)" fill="#ccc"/><rect width="6.748" height="3.093" transform="translate(192.649 105.835) rotate(180)" fill="#ccc"/><rect width="6.748" height="26.712" transform="matrix(-0.896, -0.444, 0.444, -0.896, 163.878, 111.851)" fill="#e6e6e6"/><rect width="6.748" height="3.093" transform="matrix(-0.896, -0.444, 0.444, -0.896, 172.487, 94.463)" fill="#ccc"/><rect width="6.748" height="3.093" transform="matrix(-0.896, -0.444, 0.444, -0.896, 166.498, 106.559)" fill="#ccc"/><path d="M727.311,306.129l-3.4,5.886-3.4,5.886h13.594l-3.4-5.886Z" transform="translate(-495.155 -210.379)" fill="#e6e6e6"/><path d="M708.432,309.725l-3.4,5.886-3.4,5.886h13.594l-3.4-5.886Z" transform="translate(-482.181 -212.85)" fill="#e6e6e6"/><circle cx="1.968" cy="1.968" r="1.968" transform="translate(221.892 91.214)" fill="#e6e6e6"/><ellipse cx="124.212" cy="8.822" rx="124.212" ry="8.822" transform="translate(0 167.18)" fill="#e6e6e6"/><path d="M762.161,674.123c-20.254-3.6-42.4-3.006-65.635,0,10.589-8.94,19.728-17.879,9.139-26.818,20.655,4.261,23.549,3.83,46.526,0C746.862,656.243,756.831,665.183,762.161,674.123Z" transform="translate(-540.908 -493.18)" fill="#00abbd"/><path d="M762.161,674.123c-20.254-3.6-42.4-3.006-65.635,0,10.589-8.94,19.728-17.879,9.139-26.818,20.655,4.261,23.549,3.83,46.526,0C746.862,656.243,756.831,665.183,762.161,674.123Z" transform="translate(-540.908 -493.18)" opacity="0.2"/><path d="M768.075,673.819c-17.2-2.877-36.019-2.4-55.754,0,9-7.136,16.758-14.271,7.763-21.407,17.546,3.4,20,3.057,39.522,0C755.079,659.548,763.548,666.683,768.075,673.819Z" transform="translate(-551.763 -496.69)" fill="#00abbd"/><circle cx="9.167" cy="9.167" r="9.167" transform="translate(200.592 147.297)" fill="#2f2e41"/><path d="M515.106,466.249l6.352,1.059,3.176,9.175-9.175,5.646-10.586-15.88h10.233Z" transform="translate(-346.961 -320.418)" fill="#a0616a"/><circle cx="14.821" cy="14.821" r="14.821" transform="translate(171.321 130.305)" fill="#a0616a"/><path d="M413.219,445.919s-35.993,3.882-42.345,3.176a78.653,78.653,0,0,1-9.175-1.412s-4.234,5.646-2.117,8.116a15.271,15.271,0,0,0,4.235,3.529s3.882-1.059,6.7,0,31.406,5.646,36.346,1.411S413.219,445.919,413.219,445.919Z" transform="translate(-308.944 -354.783)" fill="#2f2e41"/><path d="M423.97,553.383s-23.643-6.7-27.877-36.346v-2.823s-4.678,8.207-6.352,9.881c-1.941,1.941-8.822,19.408-8.469,21.172a4.228,4.228,0,0,1,0,2.47l-10.233-1.059V543.5s5.47-16.409,5.822-20.29,13.586-30.876,13.586-30.876,4.94-10.233,13.409,0,9.175,17.291,9.175,17.291L423.969,530.8Z" transform="translate(-317.225 -383.556)" fill="#2f2e41"/><path d="M327.574,432.065l-11.292-3.882s-10.586-7.763-8.116,0,13.762,24.7,16.938,22.937,7-6.144,6.144-6.777S324.751,439.123,327.574,432.065Z" transform="translate(-273.76 -340.224)" fill="#2f2e41"/><path d="M340.564,659.259l-9.115,4.452s-11.023,1.7-4.876,4.876,23.107,6.571,23.955,3.6.512-7.893-.38-7.762S343.108,665.195,340.564,659.259Z" transform="translate(-285.386 -501.396)" fill="#2f2e41"/><path d="M522.646,602.114s-4.587,19.761,3.176,24,62.106,4.94,66.34-2.823,2.117-7.763,2.117-7.763l-11.292-12.7,9.175-.706a3.294,3.294,0,0,0-3.176-3.176c-3.176-.353-13.056-3.882-21.525-1.412s-13.409-4.94-13.409-4.94Z" transform="translate(-420.488 -455.577)" fill="#575a89"/><path d="M294.256,267.192l-6,32.818,41.287-4.94,7.41-29.642Z" transform="translate(-198.097 -182.408)" fill="#3f3d56"/><path d="M300.531,271.141l-4.94,29.289,37.581-4.411,7.234-26.642Z" transform="translate(-203.138 -185.122)" fill="#fff"/><path d="M288.118,376.346l-1.412-.353L286,377.4l11.292,31.406,1.062-.406.349-2.064Z" transform="translate(-196.547 -258.391)" fill="#b3b3b3"/><path d="M288.257,364.785,299.549,397.6l42.7-6.352-12.7-31.053Z" transform="translate(-198.097 -247.537)" fill="#d0cde1"/><path d="M306.309,363.727v1.764l31.406-3.529-.353-1.764Z" transform="translate(-210.503 -247.537)" fill="#3f3d56"/><path d="M308.565,375.784l4.94,13.762,32.112-3.882-5.646-13.056Z" transform="translate(-212.054 -256.065)" fill="#3f3d56"/><path d="M604.848,567.521l-1.059-2.823s-8.116-14.115-12.351-11.292,8.822,16.585,8.822,16.585h4.234Z" transform="translate(-468.108 -428.395)" fill="#a0616a"/><path d="M546.334,569.623l-1.059-4.234s-2.823-13.056,2.117-12.351,6.352,13.056,6.352,13.056l-.353,2.823Z" transform="translate(-436.413 -428.379)" fill="#a0616a"/><path d="M555.732,599.47s-9.175-1.412-9.528.706-2.117,33.876,6.7,34.935,52.578,5.646,47.991-5.293-11.645-9.528-11.645-9.528l-29.994,3.176Z" transform="translate(-437.343 -459.991)" fill="#575a89"/><path d="M432.963,444.572l-9.351-6.528-6.175,4.764,7.763,8.469Z" transform="translate(-286.873 -301.034)" fill="#575a89"/><path d="M386.976,479.224l1.411,13.409,24.349-1.412-21.173-.353Z" transform="translate(-265.94 -329.334)" opacity="0.2"/><circle cx="17.644" cy="17.644" r="17.644" transform="translate(175.814 130.175)" fill="#2f2e41"/><path d="M328.309,288.353l21.878-.762,2.117-8.06-22.584.682Z" transform="translate(-225.622 -192.1)" fill="#00abbd"/><path d="M310.258,316.975l33.17-1.059.353-1.412-33.17,1.168Z" transform="translate(-213.217 -216.135)" fill="#e6e6e6"/><path d="M308,328.257l33.17-1.059.353-1.412-33.17,1.168Z" transform="translate(-211.666 -223.889)" fill="#e6e6e6"/><path d="M306.873,337.283l33.17-1.058.353-1.412-33.17,1.168Z" transform="translate(-210.891 -230.091)" fill="#e6e6e6"/></g></g></svg>