<svg xmlns="http://www.w3.org/2000/svg" width="24" height="22" viewBox="0 0 24 22">
  <path id="icon__cart" d="M8.683-4.263a2,2,0,0,1,.548,1.406,2,2,0,0,1-.548,1.406,1.71,1.71,0,0,1-1.3.594,1.71,1.71,0,0,1-1.3-.594,2,2,0,0,1-.548-1.406,2,2,0,0,1,.548-1.406,1.71,1.71,0,0,1,1.3-.594A1.71,1.71,0,0,1,8.683-4.263Zm12.923,0a2,2,0,0,1,.548,1.406,2,2,0,0,1-.548,1.406,1.71,1.71,0,0,1-1.3.594,1.71,1.71,0,0,1-1.3-.594,2,2,0,0,1-.548-1.406,2,2,0,0,1,.548-1.406,1.71,1.71,0,0,1,1.3-.594A1.71,1.71,0,0,1,21.606-4.263ZM24-19.857v8a1.015,1.015,0,0,1-.238.664.893.893,0,0,1-.584.336L8.12-8.951a10.148,10.148,0,0,1,.188,1.094,3.185,3.185,0,0,1-.346,1H21.231a.855.855,0,0,1,.649.3,1,1,0,0,1,.274.7,1,1,0,0,1-.274.7.855.855,0,0,1-.649.3H6.462a.855.855,0,0,1-.649-.3,1,1,0,0,1-.274-.7,1.593,1.593,0,0,1,.115-.492q.115-.32.231-.562t.31-.625Q6.389-7.92,6.418-8L3.865-20.857H.923a.855.855,0,0,1-.649-.3,1,1,0,0,1-.274-.7,1,1,0,0,1,.274-.7.855.855,0,0,1,.649-.3H4.615a.823.823,0,0,1,.411.1.855.855,0,0,1,.281.242,1.568,1.568,0,0,1,.188.383,2.585,2.585,0,0,1,.115.406q.029.164.079.461t.065.406H23.077a.855.855,0,0,1,.649.3A1,1,0,0,1,24-19.857Z" transform="translate(0 22.857)" fill="#42495b"/>
</svg>
