<svg xmlns="http://www.w3.org/2000/svg" width="16" height="16" viewBox="0 0 16 16">
  <path id="Caminho_1303" data-name="Caminho 1303" d="M6.188-15.33a4.149,4.149,0,0,1-1.264-3.043,4.149,4.149,0,0,1,1.264-3.043,4.149,4.149,0,0,1,3.043-1.264,4.149,4.149,0,0,1,3.043,1.264,4.149,4.149,0,0,1,1.264,3.043,4.149,4.149,0,0,1-1.264,3.043,4.149,4.149,0,0,1-3.043,1.264A4.149,4.149,0,0,1,6.188-15.33ZM0-10.374a1.183,1.183,0,0,0,.365.865,1.183,1.183,0,0,0,.865.365A1.143,1.143,0,0,0,2.1-9.508l3.3-3.288A6.584,6.584,0,0,0,9.231-11.6a6.652,6.652,0,0,0,2.63-.534,6.768,6.768,0,0,0,2.163-1.442,6.768,6.768,0,0,0,1.442-2.163A6.652,6.652,0,0,0,16-18.374,6.652,6.652,0,0,0,15.466-21a6.768,6.768,0,0,0-1.442-2.163,6.768,6.768,0,0,0-2.163-1.442,6.652,6.652,0,0,0-2.63-.534,6.652,6.652,0,0,0-2.63.534,6.768,6.768,0,0,0-2.163,1.442A6.768,6.768,0,0,0,3-21a6.652,6.652,0,0,0-.534,2.63,6.584,6.584,0,0,0,1.192,3.837l-3.3,3.3A1.178,1.178,0,0,0,0-10.374Z" transform="translate(0 25.143)" fill="#5d626d"/>
</svg>
