<svg xmlns="http://www.w3.org/2000/svg" width="16" height="16" viewBox="0 0 16 16">
  <path id="Caminho_1305" data-name="Caminho 1305" d="M17.587-8.933a1.247,1.247,0,0,1,.377.916,1.247,1.247,0,0,1-.377.916L15.756-5.27a1.247,1.247,0,0,1-.916.377,1.247,1.247,0,0,1-.916-.377L9.964-9.23,6-5.27a1.247,1.247,0,0,1-.916.377,1.247,1.247,0,0,1-.916-.377L2.341-7.1a1.247,1.247,0,0,1-.377-.916,1.247,1.247,0,0,1,.377-.916l3.96-3.96-3.96-3.96a1.247,1.247,0,0,1-.377-.916,1.247,1.247,0,0,1,.377-.916l1.832-1.832a1.247,1.247,0,0,1,.916-.377A1.247,1.247,0,0,1,6-20.516l3.96,3.96,3.96-3.96a1.247,1.247,0,0,1,.916-.377,1.247,1.247,0,0,1,.916.377l1.832,1.832a1.247,1.247,0,0,1,.377.916,1.247,1.247,0,0,1-.377.916l-3.96,3.96Z" transform="translate(-1.964 20.893)" fill="#5d626d"/>
</svg>
