<svg xmlns="http://www.w3.org/2000/svg" width="21.397" height="14" viewBox="0 0 21.397 14">
  <g id="lang-eng" transform="translate(-1700 -1722)">
    <g id="Grupo_1448" data-name="Grupo 1448" transform="translate(1700 1722)">
      <rect id="Retângulo_154" data-name="Retângulo 154" width="21.397" height="14" rx="1" transform="translate(0 0)" fill="#f5f5f5"/>
      <path id="Retângulo_155" data-name="Retângulo 155" d="M1,0H20.4a1,1,0,0,1,1,1v.254a0,0,0,0,1,0,0H0a0,0,0,0,1,0,0V1A1,1,0,0,1,1,0Z" transform="translate(0 0)" fill="#ff4b55"/>
      <rect id="Retângulo_160" data-name="Retângulo 160" width="21.397" height="1.254" transform="translate(0 6.394)" fill="#ff4b55"/>
      <rect id="Retângulo_156" data-name="Retângulo 156" width="21.397" height="1.254" transform="translate(0 2.131)" fill="#ff4b55"/>
      <rect id="Retângulo_159" data-name="Retângulo 159" width="21.397" height="1.254" transform="translate(0 8.484)" fill="#ff4b55"/>
      <rect id="Retângulo_157" data-name="Retângulo 157" width="21.397" height="1.254" transform="translate(0 4.263)" fill="#ff4b55"/>
      <rect id="Retângulo_158" data-name="Retângulo 158" width="21.397" height="1.254" transform="translate(0 10.615)" fill="#ff4b55"/>
      <path id="Retângulo_161" data-name="Retângulo 161" d="M0,0H21.4a0,0,0,0,1,0,0V.254a1,1,0,0,1-1,1H1a1,1,0,0,1-1-1V0A0,0,0,0,1,0,0Z" transform="translate(0 12.746)" fill="#ff4b55"/>
      <path id="Retângulo_162" data-name="Retângulo 162" d="M1,0h9.113a0,0,0,0,1,0,0V7.69a0,0,0,0,1,0,0H0a0,0,0,0,1,0,0V1A1,1,0,0,1,1,0Z" transform="translate(0 0)" fill="#41479b"/>
    </g>
  </g>
</svg>
