<svg xmlns="http://www.w3.org/2000/svg" width="21.397" height="14" viewBox="0 0 21.397 14">
  <g id="lang-ptbr" transform="translate(-1109 -1722)">
    <rect id="Retângulo_153" data-name="Retângulo 153" width="21.397" height="14" rx="1" transform="translate(1109 1722)" fill="#73af00"/>
    <path id="Caminho_1298" data-name="Caminho 1298" d="M69.068,133.976l-7.775,4.733a.369.369,0,0,0,0,.63l7.775,4.733a.369.369,0,0,0,.384,0l7.776-4.733a.369.369,0,0,0,0-.63l-7.776-4.733A.369.369,0,0,0,69.068,133.976Z" transform="translate(1050.434 1589.959)" fill="#ffe15a"/>
    <circle id="Elipse_2" data-name="Elipse 2" cx="2.951" cy="2.951" r="2.951" transform="translate(1116.731 1726.054)" fill="#41479b"/>
    <path id="Caminho_1299" data-name="Caminho 1299" d="M188.114,219.805a2.932,2.932,0,0,0-.318.755,7.648,7.648,0,0,1,5.6,1.829,2.931,2.931,0,0,0,.192-.816A8.429,8.429,0,0,0,188.114,219.805Z" transform="translate(929.019 1507.756)" fill="#f5f5f5"/>
  </g>
</svg>
