<svg xmlns="http://www.w3.org/2000/svg" width="72.438" height="73" viewBox="0 0 72.438 73">
  <path id="blockote" d="M13.678-4.85A51.922,51.922,0,0,1,8.6-26.94a52.916,52.916,0,0,1,7.617-27.105q7.617-13.013,21.71-23.8l8.506,5.586a3.852,3.852,0,0,1,1.9,3.555,5.107,5.107,0,0,1-.7,2.6,17.972,17.972,0,0,1-2.349,2.983q-1.523,1.777-3.491,4.507A39.43,39.43,0,0,0,38.181-52.4a46.7,46.7,0,0,0-2.793,7.681,33.643,33.643,0,0,0-1.143,8.887,37.093,37.093,0,0,0,.825,7.617,39.066,39.066,0,0,0,2.73,8.125,5.75,5.75,0,0,1,.381,2.031,5.171,5.171,0,0,1-1.4,3.491,10.151,10.151,0,0,1-3.936,2.6Zm32.7,0c-.416-.9-.807-1.792-1.205-2.77A50.981,50.981,0,0,1,41.3-26.94a52.916,52.916,0,0,1,7.617-27.105q7.617-13.013,21.71-23.8l8.506,5.586a3.852,3.852,0,0,1,1.9,3.555,5.107,5.107,0,0,1-.7,2.6,17.972,17.972,0,0,1-2.349,2.983q-1.523,1.777-3.491,4.507A39.428,39.428,0,0,0,70.882-52.4a46.7,46.7,0,0,0-2.793,7.681,33.643,33.643,0,0,0-1.143,8.887,37.093,37.093,0,0,0,.825,7.617,39.067,39.067,0,0,0,2.73,8.125,5.75,5.75,0,0,1,.381,2.031,5.171,5.171,0,0,1-1.4,3.491,10.151,10.151,0,0,1-3.936,2.6Z" transform="translate(-8.6 77.85)" fill="#eee"/>
</svg>
